<svg xmlns="http://www.w3.org/2000/svg" width="1280" height="400" viewBox="0 0 1280 400" fill="none" role="img" aria-labelledby="t d">
  <title id="t">GhostTrace</title>
  <desc id="d">GhostTrace — investigação local de rastros de software no Windows.</desc>
  <defs>
    <pattern id="scan" width="5" height="5" patternUnits="userSpaceOnUse">
      <rect width="5" height="1" fill="#FFFFFF" fill-opacity="0.028"></rect>
    </pattern>
    <clipPath id="frame"><rect x="1" y="1" width="1278" height="398" rx="16"></rect></clipPath>
  </defs>

  <rect x="0.5" y="0.5" width="1279" height="399" rx="16" fill="#0D1117" stroke="#30363D"></rect>
  <g clip-path="url(#frame)">
    <rect width="1280" height="400" fill="url(#scan)"></rect>

    
    <g stroke="#1F8FFF" fill="none">
      <circle cx="1078" cy="200" r="150" stroke-opacity="0.10"></circle>
      <circle cx="1078" cy="200" r="112" stroke-opacity="0.16" stroke-dasharray="3 8"></circle>
      <circle cx="1078" cy="200" r="74" stroke-opacity="0.24"></circle>
      <circle cx="1078" cy="200" r="38" stroke-opacity="0.40"></circle>
      <line x1="898" y1="200" x2="1258" y2="200" stroke-opacity="0.08"></line>
      <line x1="1078" y1="20" x2="1078" y2="380" stroke-opacity="0.08"></line>
    </g>
    <circle cx="1078" cy="200" r="4.5" fill="#17B47E"></circle>

    
    <g><path d="M60.55 92.15L60.55 92.15Q58.92 92.15 57.95 91.30Q56.98 90.44 56.98 88.95L56.98 88.95L58.56 88.95Q58.56 89.78 59.10 90.25Q59.65 90.72 60.55 90.72L60.55 90.72Q61.43 90.72 61.94 90.25Q62.45 89.77 62.45 88.97L62.45 88.97Q62.45 88.37 62.12 87.92Q61.79 87.47 61.17 87.31L61.17 87.31L59.60 86.89Q58.49 86.58 57.85 85.79Q57.22 85.00 57.22 83.89L57.22 83.89Q57.22 82.98 57.61 82.32Q58.01 81.65 58.74 81.28Q59.48 80.90 60.45 80.90L60.45 80.90Q61.43 80.90 62.17 81.28Q62.91 81.65 63.33 82.32Q63.74 82.98 63.74 83.87L63.74 83.87L62.15 83.87Q62.15 83.17 61.68 82.74Q61.20 82.31 60.45 82.31L60.45 82.31Q59.70 82.31 59.25 82.74Q58.79 83.17 58.79 83.86L58.79 83.86Q58.79 84.41 59.10 84.78Q59.41 85.16 59.96 85.31L59.96 85.31L61.58 85.75Q62.72 86.05 63.38 86.92Q64.04 87.78 64.04 88.97L64.04 88.97Q64.04 89.94 63.60 90.66Q63.17 91.37 62.39 91.76Q61.61 92.15 60.55 92.15ZM74.12 92.15L74.12 92.15Q72.58 92.15 71.67 91.29Q70.76 90.42 70.76 88.95L70.76 88.95L70.76 84.09Q70.76 82.61 71.67 81.75Q72.58 80.90 74.12 80.90L74.12 80.90Q75.65 80.90 76.56 81.76Q77.47 82.63 77.47 84.09L77.47 84.09L75.84 84.09Q75.84 83.24 75.39 82.79Q74.93 82.34 74.12 82.34L74.12 82.34Q73.30 82.34 72.84 82.79Q72.38 83.24 72.38 84.09L72.38 84.09L72.38 88.95Q72.38 89.81 72.84 90.26Q73.30 90.71 74.12 90.71L74.12 90.71Q74.93 90.71 75.39 90.26Q75.84 89.81 75.84 88.95L75.84 88.95L77.47 88.95Q77.47 90.42 76.56 91.29Q75.65 92.15 74.12 92.15ZM85.30 92L83.64 92L86.44 81.05L88.56 81.05L91.37 92L89.72 92L89.06 89.22L85.95 89.22L85.30 92ZM87.00 84.71L86.25 87.88L88.75 87.88L88.00 84.72Q87.80 83.89 87.67 83.27Q87.55 82.66 87.50 82.42L87.50 82.42Q87.45 82.66 87.33 83.27Q87.22 83.89 87.00 84.71L87.00 84.71ZM99.23 92L97.72 92L97.72 81.05L99.77 81.05L102.95 90.16Q102.92 89.73 102.88 89.14Q102.83 88.53 102.81 87.89Q102.78 87.25 102.78 86.70L102.78 86.70L102.78 81.05L104.28 81.05L104.28 92L102.25 92L99.06 82.89Q99.09 83.30 99.13 83.88Q99.17 84.45 99.20 85.08Q99.23 85.72 99.23 86.25L99.23 86.25L99.23 92ZM112.73 92L111.22 92L111.22 81.05L113.27 81.05L116.45 90.16Q116.42 89.73 116.38 89.14Q116.33 88.53 116.31 87.89Q116.28 87.25 116.28 86.70L116.28 86.70L116.28 81.05L117.78 81.05L117.78 92L115.75 92L112.56 82.89Q112.59 83.30 112.63 83.88Q112.67 84.45 112.70 85.08Q112.73 85.72 112.73 86.25L112.73 86.25L112.73 92ZM131.34 92L124.91 92L124.91 81.05L131.34 81.05L131.34 82.49L126.50 82.49L126.50 85.61L130.82 85.61L130.82 87.00L126.50 87.00L126.50 90.56L131.34 90.56L131.34 92ZM139.88 92L138.28 92L138.28 81.05L141.69 81.05Q142.72 81.05 143.49 81.45Q144.26 81.84 144.69 82.56Q145.12 83.28 145.12 84.26L145.12 84.26Q145.12 85.36 144.56 86.17Q144.00 86.97 143.07 87.31L143.07 87.31L145.26 92L143.50 92L141.46 87.50L139.88 87.50L139.88 92ZM139.88 82.49L139.88 86.06L141.69 86.06Q142.50 86.06 142.99 85.58Q143.47 85.10 143.47 84.29L143.47 84.29Q143.47 83.47 142.98 82.98Q142.49 82.49 141.69 82.49L141.69 82.49L139.88 82.49ZM166.94 92L165.32 92L165.32 81.05L171.95 81.05L171.95 82.53L166.91 82.53L166.91 85.81L171.56 85.81L171.56 87.31L166.94 87.31L166.94 92ZM182 92.15L182 92.15Q180.47 92.15 179.59 91.27Q178.70 90.39 178.70 88.81L178.70 88.81L178.70 84.25Q178.70 82.66 179.59 81.78Q180.47 80.90 182 80.90L182 80.90Q183.53 80.90 184.41 81.78Q185.30 82.66 185.30 84.23L185.30 84.23L185.30 88.81Q185.30 90.39 184.41 91.27Q183.53 92.15 182 92.15ZM182 90.71L182 90.71Q182.81 90.71 183.25 90.26Q183.68 89.81 183.68 88.95L183.68 88.95L183.68 84.09Q183.68 83.24 183.25 82.79Q182.82 82.34 182 82.34L182 82.34Q181.18 82.34 180.75 82.79Q180.32 83.24 180.32 84.09L180.32 84.09L180.32 88.95Q180.32 89.81 180.75 90.26Q181.19 90.71 182 90.71ZM193.88 92L192.28 92L192.28 81.05L195.69 81.05Q196.72 81.05 197.49 81.45Q198.26 81.84 198.69 82.56Q199.12 83.28 199.12 84.26L199.12 84.26Q199.12 85.36 198.56 86.17Q198.00 86.97 197.07 87.31L197.07 87.31L199.26 92L197.50 92L195.46 87.50L193.88 87.50L193.88 92ZM193.88 82.49L193.88 86.06L195.69 86.06Q196.50 86.06 196.99 85.58Q197.47 85.10 197.47 84.29L197.47 84.29Q197.47 83.47 196.98 82.98Q196.49 82.49 195.69 82.49L195.69 82.49L193.88 82.49ZM212.34 92L205.91 92L205.91 81.05L212.34 81.05L212.34 82.49L207.50 82.49L207.50 85.61L211.82 85.61L211.82 87.00L207.50 87.00L207.50 90.56L212.34 90.56L212.34 92ZM220.73 92L219.22 92L219.22 81.05L221.27 81.05L224.45 90.16Q224.42 89.73 224.38 89.14Q224.33 88.53 224.31 87.89Q224.28 87.25 224.28 86.70L224.28 86.70L224.28 81.05L225.78 81.05L225.78 92L223.75 92L220.56 82.89Q220.59 83.30 220.63 83.88Q220.67 84.45 220.70 85.08Q220.73 85.72 220.73 86.25L220.73 86.25L220.73 92ZM236.04 92.15L236.04 92.15Q234.43 92.15 233.45 91.30Q232.47 90.44 232.47 88.95L232.47 88.95L234.06 88.95Q234.06 89.78 234.60 90.25Q235.15 90.72 236.04 90.72L236.04 90.72Q236.93 90.72 237.44 90.25Q237.95 89.77 237.95 88.97L237.95 88.97Q237.95 88.37 237.62 87.92Q237.29 87.47 236.68 87.31L236.68 87.31L235.10 86.89Q233.99 86.58 233.35 85.79Q232.72 85.00 232.72 83.89L232.72 83.89Q232.72 82.98 233.11 82.32Q233.51 81.65 234.25 81.28Q234.98 80.90 235.96 80.90L235.96 80.90Q236.93 80.90 237.67 81.28Q238.41 81.65 238.83 82.32Q239.24 82.98 239.24 83.87L239.24 83.87L237.65 83.87Q237.65 83.17 237.18 82.74Q236.71 82.31 235.96 82.31L235.96 82.31Q235.21 82.31 234.75 82.74Q234.29 83.17 234.29 83.86L234.29 83.86Q234.29 84.41 234.60 84.78Q234.91 85.16 235.46 85.31L235.46 85.31L237.08 85.75Q238.22 86.05 238.88 86.92Q239.54 87.78 239.54 88.97L239.54 88.97Q239.54 89.94 239.10 90.66Q238.67 91.37 237.89 91.76Q237.11 92.15 236.04 92.15ZM252.84 92L246.41 92L246.41 81.05L252.84 81.05L252.84 82.49L248 82.49L248 85.61L252.32 85.61L252.32 87.00L248 87.00L248 90.56L252.84 90.56L252.84 92ZM276.31 92L273.25 92L273.25 81.05L276.31 81.05Q277.38 81.05 278.18 81.46Q278.98 81.88 279.42 82.63Q279.86 83.39 279.86 84.39L279.86 84.39L279.86 88.63Q279.86 89.66 279.42 90.41Q278.98 91.16 278.18 91.58Q277.38 92 276.31 92L276.31 92ZM274.87 82.49L274.87 90.55L276.31 90.55Q277.19 90.55 277.71 90.03Q278.24 89.53 278.24 88.63L278.24 88.63L278.24 84.39Q278.24 83.53 277.71 83.01Q277.19 82.49 276.31 82.49L276.31 82.49L274.87 82.49ZM293.35 92L286.91 92L286.91 81.05L293.35 81.05L293.35 82.49L288.50 82.49L288.50 85.61L292.82 85.61L292.82 87.00L288.50 87.00L288.50 90.56L293.35 90.56L293.35 92ZM315.38 92L313.77 92L313.77 81.05L317.19 81.05Q318.21 81.05 318.99 81.45Q319.76 81.84 320.19 82.56Q320.62 83.28 320.62 84.26L320.62 84.26Q320.62 85.36 320.06 86.17Q319.50 86.97 318.57 87.31L318.57 87.31L320.76 92L319.00 92L316.95 87.50L315.38 87.50L315.38 92ZM315.38 82.49L315.38 86.06L317.19 86.06Q318.00 86.06 318.49 85.58Q318.96 85.10 318.96 84.29L318.96 84.29Q318.96 83.47 318.48 82.98Q317.99 82.49 317.19 82.49L317.19 82.49L315.38 82.49ZM328.30 92L326.64 92L329.44 81.05L331.56 81.05L334.37 92L332.72 92L332.06 89.22L328.95 89.22L328.30 92ZM330.00 84.71L329.25 87.88L331.75 87.88L331.00 84.72Q330.80 83.89 330.67 83.27Q330.55 82.66 330.50 82.42L330.50 82.42Q330.45 82.66 330.33 83.27Q330.21 83.89 330.00 84.71L330.00 84.71ZM344.05 92.15L344.05 92.15Q342.43 92.15 341.45 91.30Q340.48 90.44 340.48 88.95L340.48 88.95L342.06 88.95Q342.06 89.78 342.61 90.25Q343.14 90.72 344.05 90.72L344.05 90.72Q344.93 90.72 345.44 90.25Q345.95 89.77 345.95 88.97L345.95 88.97Q345.95 88.37 345.62 87.92Q345.29 87.47 344.68 87.31L344.68 87.31L343.10 86.89Q341.99 86.58 341.35 85.79Q340.71 85.00 340.71 83.89L340.71 83.89Q340.71 82.98 341.11 82.32Q341.51 81.65 342.25 81.28Q342.98 80.90 343.95 80.90L343.95 80.90Q344.93 80.90 345.67 81.28Q346.42 81.65 346.83 82.32Q347.24 82.98 347.24 83.87L347.24 83.87L345.65 83.87Q345.65 83.17 345.18 82.74Q344.70 82.31 343.95 82.31L343.95 82.31Q343.20 82.31 342.75 82.74Q342.29 83.17 342.29 83.86L342.29 83.86Q342.29 84.41 342.60 84.78Q342.90 85.16 343.46 85.31L343.46 85.31L345.08 85.75Q346.22 86.05 346.88 86.92Q347.54 87.78 347.54 88.97L347.54 88.97Q347.54 89.94 347.11 90.66Q346.67 91.37 345.89 91.76Q345.11 92.15 344.05 92.15ZM358.31 92L356.69 92L356.69 82.52L353.76 82.52L353.76 81.05L361.25 81.05L361.25 82.52L358.31 82.52L358.31 92ZM369.38 92L367.77 92L367.77 81.05L371.19 81.05Q372.21 81.05 372.99 81.45Q373.76 81.84 374.19 82.56Q374.62 83.28 374.62 84.26L374.62 84.26Q374.62 85.36 374.06 86.17Q373.50 86.97 372.57 87.31L372.57 87.31L374.76 92L373.00 92L370.95 87.50L369.38 87.50L369.38 92ZM369.38 82.49L369.38 86.06L371.19 86.06Q372.00 86.06 372.49 85.58Q372.96 85.10 372.96 84.29L372.96 84.29Q372.96 83.47 372.48 82.98Q371.99 82.49 371.19 82.49L371.19 82.49L369.38 82.49ZM384.50 92.15L384.50 92.15Q382.97 92.15 382.08 91.27Q381.20 90.39 381.20 88.81L381.20 88.81L381.20 84.25Q381.20 82.66 382.08 81.78Q382.97 80.90 384.50 80.90L384.50 80.90Q386.03 80.90 386.92 81.78Q387.80 82.66 387.80 84.23L387.80 84.23L387.80 88.81Q387.80 90.39 386.92 91.27Q386.03 92.15 384.50 92.15ZM384.50 90.71L384.50 90.71Q385.31 90.71 385.75 90.26Q386.18 89.81 386.18 88.95L386.18 88.95L386.18 84.09Q386.18 83.24 385.75 82.79Q385.32 82.34 384.50 82.34L384.50 82.34Q383.68 82.34 383.25 82.79Q382.82 83.24 382.82 84.09L382.82 84.09L382.82 88.95Q382.82 89.81 383.25 90.26Q383.69 90.71 384.50 90.71ZM398.05 92.15L398.05 92.15Q396.43 92.15 395.45 91.30Q394.48 90.44 394.48 88.95L394.48 88.95L396.06 88.95Q396.06 89.78 396.61 90.25Q397.14 90.72 398.05 90.72L398.05 90.72Q398.93 90.72 399.44 90.25Q399.95 89.77 399.95 88.97L399.95 88.97Q399.95 88.37 399.62 87.92Q399.29 87.47 398.68 87.31L398.68 87.31L397.10 86.89Q395.99 86.58 395.35 85.79Q394.71 85.00 394.71 83.89L394.71 83.89Q394.71 82.98 395.11 82.32Q395.51 81.65 396.25 81.28Q396.98 80.90 397.95 80.90L397.95 80.90Q398.93 80.90 399.67 81.28Q400.42 81.65 400.83 82.32Q401.24 82.98 401.24 83.87L401.24 83.87L399.65 83.87Q399.65 83.17 399.18 82.74Q398.70 82.31 397.95 82.31L397.95 82.31Q397.20 82.31 396.75 82.74Q396.29 83.17 396.29 83.86L396.29 83.86Q396.29 84.41 396.60 84.78Q396.90 85.16 397.46 85.31L397.46 85.31L399.08 85.75Q400.22 86.05 400.88 86.92Q401.54 87.78 401.54 88.97L401.54 88.97Q401.54 89.94 401.11 90.66Q400.67 91.37 399.89 91.76Q399.11 92.15 398.05 92.15Z" fill="#1F8FFF"></path></g>

    
    <g font-family="ui-monospace, &#39;SF Mono&#39;, &#39;Cascadia Code&#39;, &#39;JetBrains Mono&#39;, Consolas, monospace" font-size="72" font-weight="700" letter-spacing="-1">
      <g><path d="M89.89 204.72L89.89 204.72Q84.78 204.72 81.03 202.81Q77.29 200.90 75.24 197.41Q73.18 193.92 73.18 189.17L73.18 189.17L73.18 166.27Q73.18 161.52 75.24 158.03Q77.29 154.54 81.03 152.63Q84.78 150.72 89.89 150.72L89.89 150.72Q94.93 150.72 98.67 152.63Q102.42 154.54 104.50 158.03Q106.59 161.52 106.59 166.27L106.59 166.27L97.52 166.27Q97.52 162.60 95.54 160.62Q93.56 158.64 89.89 158.64L89.89 158.64Q86.22 158.64 84.20 160.58Q82.18 162.53 82.18 166.20L82.18 166.20L82.18 189.17Q82.18 192.84 84.20 194.86Q86.22 196.87 89.89 196.87L89.89 196.87Q93.56 196.87 95.54 194.86Q97.52 192.84 97.52 189.17L97.52 189.17L97.52 183.34L88.59 183.34L88.59 175.56L106.59 175.56L106.59 189.17Q106.59 193.92 104.50 197.41Q102.42 200.90 98.67 202.81Q94.93 204.72 89.89 204.72ZM124.74 204L115.74 204L115.74 151.44L124.74 151.44L124.74 164.40L124.53 171.74Q125.25 168 128.06 165.84Q130.86 163.68 135.18 163.68L135.18 163.68Q141.02 163.68 144.51 167.57Q148 171.46 148 178.01L148 178.01L148 204L139 204L139 179.09Q139 175.42 137.09 173.44Q135.18 171.46 131.94 171.46L131.94 171.46Q128.56 171.46 126.65 173.47Q124.74 175.49 124.74 179.23L124.74 179.23L124.74 204ZM174.00 204.65L174.00 204.65Q166.37 204.65 161.90 200.36Q157.44 196.08 157.44 188.81L157.44 188.81L157.44 179.59Q157.44 172.25 161.90 168Q166.37 163.75 174.00 163.75L174.00 163.75Q181.63 163.75 186.10 168Q190.56 172.25 190.56 179.59L190.56 179.59L190.56 188.81Q190.56 196.08 186.10 200.36Q181.63 204.65 174.00 204.65ZM174.00 196.80L174.00 196.80Q177.60 196.80 179.58 194.82Q181.56 192.84 181.56 189.10L181.56 189.10L181.56 179.30Q181.56 175.56 179.58 173.58Q177.60 171.60 174.00 171.60L174.00 171.60Q170.40 171.60 168.42 173.58Q166.44 175.56 166.44 179.30L166.44 179.30L166.44 189.10Q166.44 192.84 168.42 194.82Q170.40 196.80 174.00 196.80ZM217.71 204.65L214.54 204.65Q207.49 204.65 203.38 201.44Q199.28 198.24 199.28 192.77L199.28 192.77L208.14 192.77Q208.14 195.07 209.83 196.30Q211.52 197.52 214.54 197.52L214.54 197.52L217.71 197.52Q220.95 197.52 222.72 196.30Q224.48 195.07 224.48 192.77L224.48 192.77Q224.48 190.61 223.26 189.56Q222.03 188.52 219.51 188.16L219.51 188.16L209.65 186.86Q204.90 186.22 202.34 183.19Q199.78 180.17 199.78 175.34L199.78 175.34Q199.78 169.73 203.53 166.74Q207.27 163.75 214.33 163.75L214.33 163.75L217.64 163.75Q224.26 163.75 228.30 166.78Q232.33 169.80 232.47 174.84L232.47 174.84L223.54 174.84Q223.47 172.97 221.89 171.85Q220.30 170.74 217.64 170.74L217.64 170.74L214.33 170.74Q211.45 170.74 209.94 171.92Q208.42 173.11 208.42 175.13L208.42 175.13Q208.42 176.93 209.54 177.79Q210.66 178.66 212.82 178.87L212.82 178.87L222.10 180.17Q227.58 180.82 230.35 184.02Q233.12 187.22 233.12 192.62L233.12 192.62Q233.12 198.38 229.20 201.52Q225.27 204.65 217.71 204.65L217.71 204.65ZM274.74 204L262.36 204Q256.82 204 253.54 200.80Q250.26 197.59 250.26 192.12L250.26 192.12L250.26 172.54L239.32 172.54L239.32 164.40L250.26 164.40L250.26 153.24L259.34 153.24L259.34 164.40L275.10 164.40L275.10 172.54L259.34 172.54L259.34 191.90Q259.34 193.63 260.31 194.75Q261.28 195.86 263.01 195.86L263.01 195.86L274.74 195.86L274.74 204ZM305.14 204L296.06 204L296.06 159.58L282.31 159.58L282.31 151.44L318.89 151.44L318.89 159.58L305.14 159.58L305.14 204ZM337.18 204L328.18 204L328.18 164.40L336.97 164.40L336.97 172.10Q337.69 168.22 340.53 165.95Q343.38 163.68 347.91 163.68L347.91 163.68Q353.96 163.68 357.34 167.57Q360.73 171.46 360.73 178.44L360.73 178.44L360.73 182.18L351.73 182.18L351.73 178.87Q351.73 175.27 349.86 173.36Q347.98 171.46 344.53 171.46L344.53 171.46Q340.93 171.46 339.06 173.62Q337.18 175.78 337.18 179.74L337.18 179.74L337.18 204ZM380.61 204.72L380.61 204.72Q374.56 204.72 371.07 201.30Q367.58 197.88 367.58 192.34L367.58 192.34Q367.58 186.58 371.54 183.16Q375.50 179.74 382.41 179.74L382.41 179.74L392.06 179.74L392.06 176.93Q392.06 170.95 385.07 170.95L385.07 170.95Q381.90 170.95 380.03 172.18Q378.16 173.40 377.94 175.63L377.94 175.63L369.30 175.63Q369.59 170.30 373.80 166.99Q378.02 163.68 385.14 163.68L385.14 163.68Q392.70 163.68 396.88 167.21Q401.06 170.74 401.06 177.14L401.06 177.14L401.06 204L392.27 204L392.27 196.58Q391.77 200.40 388.67 202.56Q385.58 204.72 380.61 204.72ZM383.49 197.38L383.49 197.38Q387.45 197.38 389.75 195.43Q392.06 193.49 392.06 190.25L392.06 190.25L392.06 185.57L382.84 185.57Q379.89 185.57 378.16 187.22Q376.43 188.88 376.43 191.47L376.43 191.47Q376.43 194.14 378.27 195.76Q380.10 197.38 383.49 197.38ZM427.85 204.72L427.85 204.72Q422.74 204.72 418.96 202.81Q415.18 200.90 413.09 197.41Q411.00 193.92 411.00 189.17L411.00 189.17L411.00 179.23Q411.00 174.48 413.09 170.99Q415.18 167.50 418.96 165.59Q422.74 163.68 427.85 163.68L427.85 163.68Q435.26 163.68 439.76 167.53Q444.26 171.38 444.48 178.01L444.48 178.01L435.62 178.01Q435.41 174.91 433.28 173.22Q431.16 171.53 427.85 171.53L427.85 171.53Q424.18 171.53 422.09 173.51Q420.00 175.49 420.00 179.16L420.00 179.16L420.00 189.17Q420.00 192.84 422.09 194.86Q424.18 196.87 427.85 196.87L427.85 196.87Q431.23 196.87 433.32 195.18Q435.41 193.49 435.62 190.39L435.62 190.39L444.48 190.39Q444.26 197.02 439.76 200.87Q435.26 204.72 427.85 204.72ZM469.47 204.72L469.47 204.72Q464.43 204.72 460.69 202.78Q456.94 200.83 454.89 197.27Q452.84 193.70 452.84 188.88L452.84 188.88L452.84 179.52Q452.84 174.70 454.89 171.13Q456.94 167.57 460.69 165.62Q464.43 163.68 469.47 163.68L469.47 163.68Q474.44 163.68 478.15 165.62Q481.86 167.57 483.91 171.06Q485.96 174.55 485.96 179.23L485.96 179.23L485.96 186.43L461.48 186.43L461.48 189.17Q461.48 193.20 463.57 195.25Q465.66 197.30 469.47 197.30L469.47 197.30Q472.28 197.30 474.26 196.33Q476.24 195.36 476.60 193.49L476.60 193.49L485.53 193.49Q484.59 198.60 480.20 201.66Q475.81 204.72 469.47 204.72ZM461.48 179.23L461.48 179.23L461.48 180.60L477.32 180.53L477.32 179.16Q477.32 175.06 475.30 172.82Q473.29 170.59 469.47 170.59L469.47 170.59Q465.51 170.59 463.50 172.86Q461.48 175.13 461.48 179.23Z" fill="#1F8FFF" fill-opacity="0.08"></path></g>
      <g><path d="M83.89 200.72L83.89 200.72Q78.78 200.72 75.03 198.81Q71.29 196.90 69.24 193.41Q67.18 189.92 67.18 185.17L67.18 185.17L67.18 162.27Q67.18 157.52 69.24 154.03Q71.29 150.54 75.03 148.63Q78.78 146.72 83.89 146.72L83.89 146.72Q88.93 146.72 92.67 148.63Q96.42 150.54 98.50 154.03Q100.59 157.52 100.59 162.27L100.59 162.27L91.52 162.27Q91.52 158.60 89.54 156.62Q87.56 154.64 83.89 154.64L83.89 154.64Q80.22 154.64 78.20 156.58Q76.18 158.53 76.18 162.20L76.18 162.20L76.18 185.17Q76.18 188.84 78.20 190.86Q80.22 192.87 83.89 192.87L83.89 192.87Q87.56 192.87 89.54 190.86Q91.52 188.84 91.52 185.17L91.52 185.17L91.52 179.34L82.59 179.34L82.59 171.56L100.59 171.56L100.59 185.17Q100.59 189.92 98.50 193.41Q96.42 196.90 92.67 198.81Q88.93 200.72 83.89 200.72ZM118.74 200L109.74 200L109.74 147.44L118.74 147.44L118.74 160.40L118.53 167.74Q119.25 164 122.06 161.84Q124.86 159.68 129.18 159.68L129.18 159.68Q135.02 159.68 138.51 163.57Q142 167.46 142 174.01L142 174.01L142 200L133 200L133 175.09Q133 171.42 131.09 169.44Q129.18 167.46 125.94 167.46L125.94 167.46Q122.56 167.46 120.65 169.47Q118.74 171.49 118.74 175.23L118.74 175.23L118.74 200ZM168.00 200.65L168.00 200.65Q160.37 200.65 155.90 196.36Q151.44 192.08 151.44 184.81L151.44 184.81L151.44 175.59Q151.44 168.25 155.90 164Q160.37 159.75 168.00 159.75L168.00 159.75Q175.63 159.75 180.10 164Q184.56 168.25 184.56 175.59L184.56 175.59L184.56 184.81Q184.56 192.08 180.10 196.36Q175.63 200.65 168.00 200.65ZM168.00 192.80L168.00 192.80Q171.60 192.80 173.58 190.82Q175.56 188.84 175.56 185.10L175.56 185.10L175.56 175.30Q175.56 171.56 173.58 169.58Q171.60 167.60 168.00 167.60L168.00 167.60Q164.40 167.60 162.42 169.58Q160.44 171.56 160.44 175.30L160.44 175.30L160.44 185.10Q160.44 188.84 162.42 190.82Q164.40 192.80 168.00 192.80ZM211.71 200.65L208.54 200.65Q201.49 200.65 197.38 197.44Q193.28 194.24 193.28 188.77L193.28 188.77L202.14 188.77Q202.14 191.07 203.83 192.30Q205.52 193.52 208.54 193.52L208.54 193.52L211.71 193.52Q214.95 193.52 216.72 192.30Q218.48 191.07 218.48 188.77L218.48 188.77Q218.48 186.61 217.26 185.56Q216.03 184.52 213.51 184.16L213.51 184.16L203.65 182.86Q198.90 182.22 196.34 179.19Q193.78 176.17 193.78 171.34L193.78 171.34Q193.78 165.73 197.53 162.74Q201.27 159.75 208.33 159.75L208.33 159.75L211.64 159.75Q218.26 159.75 222.30 162.78Q226.33 165.80 226.47 170.84L226.47 170.84L217.54 170.84Q217.47 168.97 215.89 167.85Q214.30 166.74 211.64 166.74L211.64 166.74L208.33 166.74Q205.45 166.74 203.94 167.92Q202.42 169.11 202.42 171.13L202.42 171.13Q202.42 172.93 203.54 173.79Q204.66 174.66 206.82 174.87L206.82 174.87L216.10 176.17Q221.58 176.82 224.35 180.02Q227.12 183.22 227.12 188.62L227.12 188.62Q227.12 194.38 223.20 197.52Q219.27 200.65 211.71 200.65L211.71 200.65ZM268.74 200L256.36 200Q250.82 200 247.54 196.80Q244.26 193.59 244.26 188.12L244.26 188.12L244.26 168.54L233.32 168.54L233.32 160.40L244.26 160.40L244.26 149.24L253.34 149.24L253.34 160.40L269.10 160.40L269.10 168.54L253.34 168.54L253.34 187.90Q253.34 189.63 254.31 190.75Q255.28 191.86 257.01 191.86L257.01 191.86L268.74 191.86L268.74 200ZM299.14 200L290.06 200L290.06 155.58L276.31 155.58L276.31 147.44L312.89 147.44L312.89 155.58L299.14 155.58L299.14 200ZM331.18 200L322.18 200L322.18 160.40L330.97 160.40L330.97 168.10Q331.69 164.22 334.53 161.95Q337.38 159.68 341.91 159.68L341.91 159.68Q347.96 159.68 351.34 163.57Q354.73 167.46 354.73 174.44L354.73 174.44L354.73 178.18L345.73 178.18L345.73 174.87Q345.73 171.27 343.86 169.36Q341.98 167.46 338.53 167.46L338.53 167.46Q334.93 167.46 333.06 169.62Q331.18 171.78 331.18 175.74L331.18 175.74L331.18 200ZM374.61 200.72L374.61 200.72Q368.56 200.72 365.07 197.30Q361.58 193.88 361.58 188.34L361.58 188.34Q361.58 182.58 365.54 179.16Q369.50 175.74 376.41 175.74L376.41 175.74L386.06 175.74L386.06 172.93Q386.06 166.95 379.07 166.95L379.07 166.95Q375.90 166.95 374.03 168.18Q372.16 169.40 371.94 171.63L371.94 171.63L363.30 171.63Q363.59 166.30 367.80 162.99Q372.02 159.68 379.14 159.68L379.14 159.68Q386.70 159.68 390.88 163.21Q395.06 166.74 395.06 173.14L395.06 173.14L395.06 200L386.27 200L386.27 192.58Q385.77 196.40 382.67 198.56Q379.58 200.72 374.61 200.72ZM377.49 193.38L377.49 193.38Q381.45 193.38 383.75 191.43Q386.06 189.49 386.06 186.25L386.06 186.25L386.06 181.57L376.84 181.57Q373.89 181.57 372.16 183.22Q370.43 184.88 370.43 187.47L370.43 187.47Q370.43 190.14 372.27 191.76Q374.10 193.38 377.49 193.38ZM421.85 200.72L421.85 200.72Q416.74 200.72 412.96 198.81Q409.18 196.90 407.09 193.41Q405.00 189.92 405.00 185.17L405.00 185.17L405.00 175.23Q405.00 170.48 407.09 166.99Q409.18 163.50 412.96 161.59Q416.74 159.68 421.85 159.68L421.85 159.68Q429.26 159.68 433.76 163.53Q438.26 167.38 438.48 174.01L438.48 174.01L429.62 174.01Q429.41 170.91 427.28 169.22Q425.16 167.53 421.85 167.53L421.85 167.53Q418.18 167.53 416.09 169.51Q414.00 171.49 414.00 175.16L414.00 175.16L414.00 185.17Q414.00 188.84 416.09 190.86Q418.18 192.87 421.85 192.87L421.85 192.87Q425.23 192.87 427.32 191.18Q429.41 189.49 429.62 186.39L429.62 186.39L438.48 186.39Q438.26 193.02 433.76 196.87Q429.26 200.72 421.85 200.72ZM463.47 200.72L463.47 200.72Q458.43 200.72 454.69 198.78Q450.94 196.83 448.89 193.27Q446.84 189.70 446.84 184.88L446.84 184.88L446.84 175.52Q446.84 170.70 448.89 167.13Q450.94 163.57 454.69 161.62Q458.43 159.68 463.47 159.68L463.47 159.68Q468.44 159.68 472.15 161.62Q475.86 163.57 477.91 167.06Q479.96 170.55 479.96 175.23L479.96 175.23L479.96 182.43L455.48 182.43L455.48 185.17Q455.48 189.20 457.57 191.25Q459.66 193.30 463.47 193.30L463.47 193.30Q466.28 193.30 468.26 192.33Q470.24 191.36 470.60 189.49L470.60 189.49L479.53 189.49Q478.59 194.60 474.20 197.66Q469.81 200.72 463.47 200.72ZM455.48 175.23L455.48 175.23L455.48 176.60L471.32 176.53L471.32 175.16Q471.32 171.06 469.30 168.82Q467.29 166.59 463.47 166.59L463.47 166.59Q459.51 166.59 457.50 168.86Q455.48 171.13 455.48 175.23Z" fill="#1F8FFF" fill-opacity="0.15"></path></g>
      <g><path d="M77.89 196.72L77.89 196.72Q72.78 196.72 69.03 194.81Q65.29 192.90 63.24 189.41Q61.18 185.92 61.18 181.17L61.18 181.17L61.18 158.27Q61.18 153.52 63.24 150.03Q65.29 146.54 69.03 144.63Q72.78 142.72 77.89 142.72L77.89 142.72Q82.93 142.72 86.67 144.63Q90.42 146.54 92.50 150.03Q94.59 153.52 94.59 158.27L94.59 158.27L85.52 158.27Q85.52 154.60 83.54 152.62Q81.56 150.64 77.89 150.64L77.89 150.64Q74.22 150.64 72.20 152.58Q70.18 154.53 70.18 158.20L70.18 158.20L70.18 181.17Q70.18 184.84 72.20 186.86Q74.22 188.87 77.89 188.87L77.89 188.87Q81.56 188.87 83.54 186.86Q85.52 184.84 85.52 181.17L85.52 181.17L85.52 175.34L76.59 175.34L76.59 167.56L94.59 167.56L94.59 181.17Q94.59 185.92 92.50 189.41Q90.42 192.90 86.67 194.81Q82.93 196.72 77.89 196.72ZM112.74 196L103.74 196L103.74 143.44L112.74 143.44L112.74 156.40L112.53 163.74Q113.25 160 116.06 157.84Q118.86 155.68 123.18 155.68L123.18 155.68Q129.02 155.68 132.51 159.57Q136 163.46 136 170.01L136 170.01L136 196L127 196L127 171.09Q127 167.42 125.09 165.44Q123.18 163.46 119.94 163.46L119.94 163.46Q116.56 163.46 114.65 165.47Q112.74 167.49 112.74 171.23L112.74 171.23L112.74 196ZM162.00 196.65L162.00 196.65Q154.37 196.65 149.90 192.36Q145.44 188.08 145.44 180.81L145.44 180.81L145.44 171.59Q145.44 164.25 149.90 160Q154.37 155.75 162.00 155.75L162.00 155.75Q169.63 155.75 174.10 160Q178.56 164.25 178.56 171.59L178.56 171.59L178.56 180.81Q178.56 188.08 174.10 192.36Q169.63 196.65 162.00 196.65ZM162.00 188.80L162.00 188.80Q165.60 188.80 167.58 186.82Q169.56 184.84 169.56 181.10L169.56 181.10L169.56 171.30Q169.56 167.56 167.58 165.58Q165.60 163.60 162.00 163.60L162.00 163.60Q158.40 163.60 156.42 165.58Q154.44 167.56 154.44 171.30L154.44 171.30L154.44 181.10Q154.44 184.84 156.42 186.82Q158.40 188.80 162.00 188.80ZM205.71 196.65L202.54 196.65Q195.49 196.65 191.38 193.44Q187.28 190.24 187.28 184.77L187.28 184.77L196.14 184.77Q196.14 187.07 197.83 188.30Q199.52 189.52 202.54 189.52L202.54 189.52L205.71 189.52Q208.95 189.52 210.72 188.30Q212.48 187.07 212.48 184.77L212.48 184.77Q212.48 182.61 211.26 181.56Q210.03 180.52 207.51 180.16L207.51 180.16L197.65 178.86Q192.90 178.22 190.34 175.19Q187.78 172.17 187.78 167.34L187.78 167.34Q187.78 161.73 191.53 158.74Q195.27 155.75 202.33 155.75L202.33 155.75L205.64 155.75Q212.26 155.75 216.30 158.78Q220.33 161.80 220.47 166.84L220.47 166.84L211.54 166.84Q211.47 164.97 209.89 163.85Q208.30 162.74 205.64 162.74L205.64 162.74L202.33 162.74Q199.45 162.74 197.94 163.92Q196.42 165.11 196.42 167.13L196.42 167.13Q196.42 168.93 197.54 169.79Q198.66 170.66 200.82 170.87L200.82 170.87L210.10 172.17Q215.58 172.82 218.35 176.02Q221.12 179.22 221.12 184.62L221.12 184.62Q221.12 190.38 217.20 193.52Q213.27 196.65 205.71 196.65L205.71 196.65ZM262.74 196L250.36 196Q244.82 196 241.54 192.80Q238.26 189.59 238.26 184.12L238.26 184.12L238.26 164.54L227.32 164.54L227.32 156.40L238.26 156.40L238.26 145.24L247.34 145.24L247.34 156.40L263.10 156.40L263.10 164.54L247.34 164.54L247.34 183.90Q247.34 185.63 248.31 186.75Q249.28 187.86 251.01 187.86L251.01 187.86L262.74 187.86L262.74 196ZM293.14 196L284.06 196L284.06 151.58L270.31 151.58L270.31 143.44L306.89 143.44L306.89 151.58L293.14 151.58L293.14 196ZM325.18 196L316.18 196L316.18 156.40L324.97 156.40L324.97 164.10Q325.69 160.22 328.53 157.95Q331.38 155.68 335.91 155.68L335.91 155.68Q341.96 155.68 345.34 159.57Q348.73 163.46 348.73 170.44L348.73 170.44L348.73 174.18L339.73 174.18L339.73 170.87Q339.73 167.27 337.86 165.36Q335.98 163.46 332.53 163.46L332.53 163.46Q328.93 163.46 327.06 165.62Q325.18 167.78 325.18 171.74L325.18 171.74L325.18 196ZM368.61 196.72L368.61 196.72Q362.56 196.72 359.07 193.30Q355.58 189.88 355.58 184.34L355.58 184.34Q355.58 178.58 359.54 175.16Q363.50 171.74 370.41 171.74L370.41 171.74L380.06 171.74L380.06 168.93Q380.06 162.95 373.07 162.95L373.07 162.95Q369.90 162.95 368.03 164.18Q366.16 165.40 365.94 167.63L365.94 167.63L357.30 167.63Q357.59 162.30 361.80 158.99Q366.02 155.68 373.14 155.68L373.14 155.68Q380.70 155.68 384.88 159.21Q389.06 162.74 389.06 169.14L389.06 169.14L389.06 196L380.27 196L380.27 188.58Q379.77 192.40 376.67 194.56Q373.58 196.72 368.61 196.72ZM371.49 189.38L371.49 189.38Q375.45 189.38 377.75 187.43Q380.06 185.49 380.06 182.25L380.06 182.25L380.06 177.57L370.84 177.57Q367.89 177.57 366.16 179.22Q364.43 180.88 364.43 183.47L364.43 183.47Q364.43 186.14 366.27 187.76Q368.10 189.38 371.49 189.38ZM415.85 196.72L415.85 196.72Q410.74 196.72 406.96 194.81Q403.18 192.90 401.09 189.41Q399.00 185.92 399.00 181.17L399.00 181.17L399.00 171.23Q399.00 166.48 401.09 162.99Q403.18 159.50 406.96 157.59Q410.74 155.68 415.85 155.68L415.85 155.68Q423.26 155.68 427.76 159.53Q432.26 163.38 432.48 170.01L432.48 170.01L423.62 170.01Q423.41 166.91 421.28 165.22Q419.16 163.53 415.85 163.53L415.85 163.53Q412.18 163.53 410.09 165.51Q408.00 167.49 408.00 171.16L408.00 171.16L408.00 181.17Q408.00 184.84 410.09 186.86Q412.18 188.87 415.85 188.87L415.85 188.87Q419.23 188.87 421.32 187.18Q423.41 185.49 423.62 182.39L423.62 182.39L432.48 182.39Q432.26 189.02 427.76 192.87Q423.26 196.72 415.85 196.72ZM457.47 196.72L457.47 196.72Q452.43 196.72 448.69 194.78Q444.94 192.83 442.89 189.27Q440.84 185.70 440.84 180.88L440.84 180.88L440.84 171.52Q440.84 166.70 442.89 163.13Q444.94 159.57 448.69 157.62Q452.43 155.68 457.47 155.68L457.47 155.68Q462.44 155.68 466.15 157.62Q469.86 159.57 471.91 163.06Q473.96 166.55 473.96 171.23L473.96 171.23L473.96 178.43L449.48 178.43L449.48 181.17Q449.48 185.20 451.57 187.25Q453.66 189.30 457.47 189.30L457.47 189.30Q460.28 189.30 462.26 188.33Q464.24 187.36 464.60 185.49L464.60 185.49L473.53 185.49Q472.59 190.60 468.20 193.66Q463.81 196.72 457.47 196.72ZM449.48 171.23L449.48 171.23L449.48 172.60L465.32 172.53L465.32 171.16Q465.32 167.06 463.30 164.82Q461.29 162.59 457.47 162.59L457.47 162.59Q453.51 162.59 451.50 164.86Q449.48 167.13 449.48 171.23Z" fill="#E6EDF3"></path></g>
    </g>
    <rect x="506" y="152" width="22" height="52" fill="#17B47E" fill-opacity="0.9"></rect>

    
    <g><path d="M67.41 248L59.99 248L59.99 246.44L62.83 246.44L62.83 235.69L59.99 235.69L59.99 234.13L67.41 234.13L67.41 235.69L64.57 235.69L64.57 246.44L67.41 246.44L67.41 248ZM73.06 248L71.35 248L71.35 237.55L73.06 237.55L73.06 239.54L73.08 239.54Q73.21 238.50 73.93 237.93Q74.65 237.36 75.85 237.36L75.85 237.36Q77.43 237.36 78.36 238.33Q79.29 239.30 79.29 240.97L79.29 240.97L79.29 248L77.58 248L77.58 241.27Q77.58 240.08 76.98 239.44Q76.38 238.80 75.36 238.80L75.36 238.80Q74.29 238.80 73.68 239.47Q73.06 240.13 73.06 241.35L73.06 241.35L73.06 248ZM88.02 248L85.78 248L82.23 237.55L84.07 237.55L86.35 244.58Q86.56 245.21 86.71 245.79Q86.86 246.37 86.94 246.69L86.94 246.69Q87.03 246.37 87.17 245.79Q87.30 245.21 87.49 244.58L87.49 244.58L89.77 237.55L91.57 237.55L88.02 248ZM98.50 248.19L98.50 248.19Q96.66 248.19 95.53 247.08Q94.40 245.97 94.40 244.01L94.40 244.01L94.40 241.54Q94.40 239.58 95.53 238.47Q96.66 237.36 98.50 237.36L98.50 237.36Q99.73 237.36 100.66 237.85Q101.58 238.35 102.09 239.24Q102.60 240.13 102.60 241.35L102.60 241.35L102.60 243.21L96.07 243.21L96.07 244.20Q96.07 245.36 96.73 246.03Q97.40 246.71 98.50 246.71L98.50 246.71Q99.45 246.71 100.07 246.34Q100.68 245.97 100.82 245.34L100.82 245.34L102.53 245.34Q102.36 246.65 101.25 247.42Q100.15 248.19 98.50 248.19ZM96.07 241.35L96.07 241.88L100.93 241.88L100.93 241.35Q100.93 240.12 100.30 239.44Q99.66 238.77 98.50 238.77L98.50 238.77Q97.34 238.77 96.70 239.44Q96.07 240.12 96.07 241.35L96.07 241.35ZM110.52 248.15L109.68 248.15Q107.93 248.15 106.97 247.36Q106.01 246.57 106.01 245.13L106.01 245.13L107.72 245.13Q107.72 245.85 108.24 246.26Q108.75 246.67 109.68 246.67L109.68 246.67L110.52 246.67Q111.47 246.67 111.99 246.25Q112.51 245.83 112.51 245.07L112.51 245.07Q112.51 243.72 111.28 243.55L111.28 243.55L108.39 243.14Q107.33 242.98 106.74 242.25Q106.15 241.52 106.15 240.32L106.15 240.32Q106.15 238.96 107.09 238.18Q108.03 237.40 109.68 237.40L109.68 237.40L110.52 237.40Q112.04 237.40 113.00 238.15Q113.96 238.90 114.03 240.12L114.03 240.12L112.30 240.12Q112.27 239.56 111.78 239.20Q111.30 238.84 110.52 238.84L110.52 238.84L109.68 238.84Q108.81 238.84 108.31 239.24Q107.82 239.64 107.82 240.32L107.82 240.32Q107.82 241.43 108.83 241.58L108.83 241.58L111.52 241.96Q114.18 242.34 114.18 245.07L114.18 245.07Q114.18 246.54 113.23 247.34Q112.27 248.15 110.52 248.15L110.52 248.15ZM125.78 248L122.74 248Q121.45 248 120.67 247.25Q119.89 246.50 119.89 245.25L119.89 245.25L119.89 239.11L116.89 239.11L116.89 237.55L119.89 237.55L119.89 234.60L121.60 234.60L121.60 237.55L125.88 237.55L125.88 239.11L121.60 239.11L121.60 245.25Q121.60 245.78 121.92 246.11Q122.23 246.44 122.74 246.44L122.74 246.44L125.78 246.44L125.78 248ZM138.14 248L129.21 248L129.21 246.44L132.92 246.44L132.92 239.11L129.59 239.11L129.59 237.55L134.63 237.55L134.63 246.44L138.14 246.44L138.14 248ZM133.58 235.67L133.58 235.67Q132.96 235.67 132.60 235.35Q132.24 235.02 132.24 234.47L132.24 234.47Q132.24 233.90 132.60 233.57Q132.96 233.24 133.58 233.24L133.58 233.24Q134.21 233.24 134.57 233.57Q134.93 233.90 134.93 234.47L134.93 234.47Q134.93 235.02 134.57 235.35Q134.21 235.67 133.58 235.67ZM145.18 251.42L142.26 251.42L142.26 249.86L145.20 249.86Q146.10 249.86 146.61 249.36Q147.12 248.85 147.12 248L147.12 248L147.12 247.05L147.16 245.34L147.10 245.34Q146.95 246.27 146.21 246.77Q145.47 247.28 144.35 247.28L144.35 247.28Q142.73 247.28 141.80 246.25Q140.87 245.23 140.87 243.44L140.87 243.44L140.87 241.24Q140.87 239.45 141.80 238.41Q142.73 237.36 144.35 237.36L144.35 237.36Q145.47 237.36 146.21 237.89Q146.95 238.42 147.10 239.35L147.10 239.35L147.14 239.35L147.14 237.55L148.83 237.55L148.83 248Q148.83 249.58 147.85 250.50Q146.88 251.42 145.18 251.42L145.18 251.42ZM144.86 245.85L144.86 245.85Q145.93 245.85 146.53 245.19Q147.14 244.52 147.14 243.34L147.14 243.34L147.14 241.35Q147.14 240.17 146.53 239.51Q145.93 238.84 144.86 238.84L144.86 238.84Q143.78 238.84 143.18 239.47Q142.58 240.10 142.58 241.16L142.58 241.16L142.58 243.53Q142.58 244.60 143.18 245.23Q143.78 245.85 144.86 245.85ZM155.59 248.19L155.59 248.19Q153.97 248.19 153.02 247.29Q152.07 246.38 152.07 244.92L152.07 244.92Q152.07 243.95 152.51 243.23Q152.95 242.51 153.73 242.10Q154.50 241.69 155.51 241.69L155.51 241.69L158.74 241.69L158.74 240.88Q158.74 238.84 156.52 238.84L156.52 238.84Q155.53 238.84 154.92 239.20Q154.31 239.56 154.28 240.21L154.28 240.21L152.57 240.21Q152.66 238.97 153.72 238.17Q154.77 237.36 156.52 237.36L156.52 237.36Q158.42 237.36 159.44 238.27Q160.45 239.18 160.45 240.82L160.45 240.82L160.45 248L158.76 248L158.76 246.10L158.72 246.10Q158.57 247.07 157.75 247.63Q156.94 248.19 155.59 248.19ZM156.01 246.75L156.01 246.75Q157.26 246.75 158.00 246.14Q158.74 245.53 158.74 244.49L158.74 244.49L158.74 243.02L155.70 243.02Q154.87 243.02 154.34 243.53Q153.82 244.03 153.82 244.87L153.82 244.87Q153.82 245.74 154.40 246.24Q154.98 246.75 156.01 246.75ZM167.99 251.86L166.37 251.86L166.37 250.81L167.70 250.81Q168.12 250.81 168.38 250.59Q168.63 250.38 168.63 250.13L168.63 250.13Q168.63 249.81 168.11 249.56Q167.59 249.31 166.64 249.31L166.64 249.31L167.09 248.08Q165.71 247.77 164.89 246.76Q164.07 245.76 164.07 244.20L164.07 244.20L164.07 241.35Q164.07 239.49 165.21 238.42Q166.35 237.36 168.25 237.36L168.25 237.36Q170.06 237.36 171.17 238.33Q172.28 239.30 172.34 240.97L172.34 240.97L170.63 240.97Q170.57 239.96 169.94 239.42Q169.32 238.88 168.25 238.88L168.25 238.88Q167.13 238.88 166.46 239.52Q165.78 240.15 165.78 241.33L165.78 241.33L165.78 244.20Q165.78 245.38 166.46 246.02Q167.13 246.67 168.25 246.67L168.25 246.67Q169.32 246.67 169.94 246.12Q170.57 245.57 170.63 244.58L170.63 244.58L172.34 244.58Q172.28 246.25 171.17 247.22Q170.06 248.19 168.25 248.19L168.25 248.19Q168.19 248.19 168.16 248.19L168.16 248.19L167.99 248.66Q168.48 248.72 169.01 248.91Q169.54 249.10 169.90 249.44Q170.27 249.79 170.27 250.28L170.27 250.28Q170.27 250.93 169.64 251.39Q169.01 251.86 167.99 251.86L167.99 251.86ZM178.79 248.19L178.79 248.19Q177.17 248.19 176.22 247.29Q175.27 246.38 175.27 244.92L175.27 244.92Q175.27 243.95 175.71 243.23Q176.15 242.51 176.93 242.10Q177.70 241.69 178.71 241.69L178.71 241.69L181.94 241.69L181.94 240.88Q181.94 238.84 179.72 238.84L179.72 238.84Q178.73 238.84 178.12 239.20Q177.51 239.56 177.48 240.21L177.48 240.21L175.77 240.21Q175.86 238.97 176.92 238.17Q177.97 237.36 179.72 237.36L179.72 237.36Q181.62 237.36 182.64 238.27Q183.65 239.18 183.65 240.82L183.65 240.82L183.65 248L181.96 248L181.96 246.10L181.92 246.10Q181.77 247.07 180.95 247.63Q180.14 248.19 178.79 248.19ZM179.21 246.75L179.21 246.75Q180.46 246.75 181.20 246.14Q181.94 245.53 181.94 244.49L181.94 244.49L181.94 243.02L178.90 243.02Q178.07 243.02 177.54 243.53Q177.02 244.03 177.02 244.87L177.02 244.87Q177.02 245.74 177.60 246.24Q178.18 246.75 179.21 246.75ZM181.12 235.65L181.12 235.65Q180.55 235.65 180.19 235.45Q179.83 235.25 179.59 234.99Q179.34 234.72 179.11 234.52Q178.88 234.32 178.56 234.32L178.56 234.32Q177.99 234.32 177.99 234.99L177.99 234.99L177.99 235.56L176.75 235.56L176.75 234.99Q176.75 234.13 177.23 233.66Q177.70 233.18 178.46 233.18L178.46 233.18Q179.03 233.18 179.40 233.38Q179.76 233.58 180.00 233.84Q180.25 234.11 180.48 234.31Q180.71 234.51 181.03 234.51L181.03 234.51Q181.60 234.51 181.60 233.84L181.60 233.84L181.60 233.28L182.83 233.28L182.83 233.84Q182.83 234.70 182.37 235.18Q181.90 235.65 181.12 235.65ZM191.30 248.15L191.30 248.15Q189.42 248.15 188.31 247.05Q187.20 245.95 187.20 243.97L187.20 243.97L187.20 241.58Q187.20 239.58 188.30 238.49Q189.40 237.40 191.30 237.40L191.30 237.40Q193.20 237.40 194.30 238.49Q195.40 239.58 195.40 241.58L195.40 241.58L195.40 243.97Q195.40 245.95 194.29 247.05Q193.18 248.15 191.30 248.15ZM191.30 246.63L191.30 246.63Q192.42 246.63 193.06 246.00Q193.69 245.38 193.69 244.16L193.69 244.16L193.69 241.39Q193.69 240.17 193.06 239.54Q192.42 238.92 191.30 238.92L191.30 238.92Q190.20 238.92 189.55 239.54Q188.91 240.17 188.91 241.39L188.91 241.39L188.91 244.16Q188.91 245.38 189.55 246.00Q190.20 246.63 191.30 246.63ZM219.25 248L216.02 248Q214.63 248 213.81 247.19Q212.98 246.38 212.98 245.06L212.98 245.06L212.98 235.69L209.37 235.69L209.37 234.13L214.69 234.13L214.69 245.06Q214.69 245.70 215.05 246.07Q215.41 246.44 216.02 246.44L216.02 246.44L219.25 246.44L219.25 248ZM226.10 248.15L226.10 248.15Q224.22 248.15 223.11 247.05Q222.00 245.95 222.00 243.97L222.00 243.97L222.00 241.58Q222.00 239.58 223.10 238.49Q224.20 237.40 226.10 237.40L226.10 237.40Q228.00 237.40 229.10 238.49Q230.20 239.58 230.20 241.58L230.20 241.58L230.20 243.97Q230.20 245.95 229.09 247.05Q227.98 248.15 226.10 248.15ZM226.10 246.63L226.10 246.63Q227.22 246.63 227.86 246.00Q228.49 245.38 228.49 244.16L228.49 244.16L228.49 241.39Q228.49 240.17 227.86 239.54Q227.22 238.92 226.10 238.92L226.10 238.92Q225.00 238.92 224.35 239.54Q223.71 240.17 223.71 241.39L223.71 241.39L223.71 244.16Q223.71 245.38 224.35 246.00Q225.00 246.63 226.10 246.63ZM237.85 248.19L237.85 248.19Q235.95 248.19 234.81 247.13Q233.67 246.06 233.67 244.20L233.67 244.20L233.67 241.35Q233.67 239.49 234.81 238.42Q235.95 237.36 237.85 237.36L237.85 237.36Q239.66 237.36 240.77 238.33Q241.88 239.30 241.94 240.97L241.94 240.97L240.23 240.97Q240.17 239.96 239.54 239.42Q238.92 238.88 237.85 238.88L237.85 238.88Q236.73 238.88 236.06 239.52Q235.38 240.15 235.38 241.33L235.38 241.33L235.38 244.20Q235.38 245.38 236.06 246.02Q236.73 246.67 237.85 246.67L237.85 246.67Q238.92 246.67 239.54 246.12Q240.17 245.57 240.23 244.58L240.23 244.58L241.94 244.58Q241.88 246.25 240.77 247.22Q239.66 248.19 237.85 248.19ZM248.39 248.19L248.39 248.19Q246.77 248.19 245.82 247.29Q244.87 246.38 244.87 244.92L244.87 244.92Q244.87 243.95 245.31 243.23Q245.75 242.51 246.53 242.10Q247.30 241.69 248.31 241.69L248.31 241.69L251.54 241.69L251.54 240.88Q251.54 238.84 249.32 238.84L249.32 238.84Q248.33 238.84 247.72 239.20Q247.11 239.56 247.08 240.21L247.08 240.21L245.37 240.21Q245.46 238.97 246.52 238.17Q247.57 237.36 249.32 237.36L249.32 237.36Q251.22 237.36 252.24 238.27Q253.25 239.18 253.25 240.82L253.25 240.82L253.25 248L251.56 248L251.56 246.10L251.52 246.10Q251.37 247.07 250.55 247.63Q249.74 248.19 248.39 248.19ZM248.81 246.75L248.81 246.75Q250.06 246.75 250.80 246.14Q251.54 245.53 251.54 244.49L251.54 244.49L251.54 243.02L248.50 243.02Q247.67 243.02 247.14 243.53Q246.62 244.03 246.62 244.87L246.62 244.87Q246.62 245.74 247.20 246.24Q247.78 246.75 248.81 246.75ZM265.65 248L262.42 248Q261.03 248 260.21 247.19Q259.38 246.38 259.38 245.06L259.38 245.06L259.38 235.69L255.77 235.69L255.77 234.13L261.09 234.13L261.09 245.06Q261.09 245.70 261.45 246.07Q261.81 246.44 262.42 246.44L262.42 246.44L265.65 246.44L265.65 248ZM283.49 248.19L283.49 248.19Q281.93 248.19 280.99 247.15Q280.05 246.10 280.05 244.31L280.05 244.31L280.05 241.25Q280.05 239.45 280.98 238.41Q281.91 237.36 283.49 237.36L283.49 237.36Q284.67 237.36 285.44 237.95Q286.21 238.54 286.36 239.54L286.36 239.54L286.38 239.54L286.34 237.17L286.34 234.13L288.05 234.13L288.05 248L286.34 248L286.34 246.00L286.32 246.00Q286.19 247.03 285.43 247.61Q284.67 248.19 283.49 248.19ZM284.06 246.71L284.06 246.71Q285.13 246.71 285.73 246.04Q286.34 245.38 286.34 244.20L286.34 244.20L286.34 241.35Q286.34 240.17 285.73 239.51Q285.13 238.84 284.06 238.84L284.06 238.84Q282.98 238.84 282.37 239.40Q281.76 239.96 281.76 241.25L281.76 241.25L281.76 244.29Q281.76 245.57 282.37 246.14Q282.98 246.71 284.06 246.71ZM295.70 248.19L295.70 248.19Q293.86 248.19 292.73 247.08Q291.60 245.97 291.60 244.01L291.60 244.01L291.60 241.54Q291.60 239.58 292.73 238.47Q293.86 237.36 295.70 237.36L295.70 237.36Q296.93 237.36 297.86 237.85Q298.78 238.35 299.29 239.24Q299.80 240.13 299.80 241.35L299.80 241.35L299.80 243.21L293.27 243.21L293.27 244.20Q293.27 245.36 293.93 246.03Q294.60 246.71 295.70 246.71L295.70 246.71Q296.65 246.71 297.27 246.34Q297.88 245.97 298.02 245.34L298.02 245.34L299.73 245.34Q299.56 246.65 298.45 247.42Q297.35 248.19 295.70 248.19ZM293.27 241.35L293.27 241.88L298.13 241.88L298.13 241.35Q298.13 240.12 297.50 239.44Q296.86 238.77 295.70 238.77L295.70 238.77Q294.54 238.77 293.90 239.44Q293.27 240.12 293.27 241.35L293.27 241.35ZM317.04 248L315.33 248L315.33 237.55L317.04 237.55L317.04 239.54L317.08 239.54Q317.21 238.54 317.93 237.95Q318.65 237.36 319.87 237.36L319.87 237.36Q321.50 237.36 322.39 238.34Q323.27 239.32 323.27 241.12L323.27 241.12L323.27 242.01L321.56 242.01L321.56 241.12Q321.56 238.84 319.34 238.84L319.34 238.84Q318.22 238.84 317.63 239.49Q317.04 240.13 317.04 241.35L317.04 241.35L317.04 248ZM329.59 248.19L329.59 248.19Q327.97 248.19 327.02 247.29Q326.07 246.38 326.07 244.92L326.07 244.92Q326.07 243.95 326.51 243.23Q326.95 242.51 327.73 242.10Q328.50 241.69 329.51 241.69L329.51 241.69L332.74 241.69L332.74 240.88Q332.74 238.84 330.52 238.84L330.52 238.84Q329.53 238.84 328.92 239.20Q328.31 239.56 328.28 240.21L328.28 240.21L326.57 240.21Q326.66 238.97 327.72 238.17Q328.77 237.36 330.52 237.36L330.52 237.36Q332.42 237.36 333.44 238.27Q334.45 239.18 334.45 240.82L334.45 240.82L334.45 248L332.76 248L332.76 246.10L332.72 246.10Q332.57 247.07 331.75 247.63Q330.94 248.19 329.59 248.19ZM330.01 246.75L330.01 246.75Q331.26 246.75 332.00 246.14Q332.74 245.53 332.74 244.49L332.74 244.49L332.74 243.02L329.70 243.02Q328.87 243.02 328.34 243.53Q327.82 244.03 327.82 244.87L327.82 244.87Q327.82 245.74 328.40 246.24Q328.98 246.75 330.01 246.75ZM342.52 248.15L341.68 248.15Q339.93 248.15 338.97 247.36Q338.02 246.57 338.02 245.13L338.02 245.13L339.73 245.13Q339.73 245.85 340.24 246.26Q340.75 246.67 341.68 246.67L341.68 246.67L342.52 246.67Q343.47 246.67 343.99 246.25Q344.51 245.83 344.51 245.07L344.51 245.07Q344.51 243.72 343.28 243.55L343.28 243.55L340.39 243.14Q339.33 242.98 338.74 242.25Q338.15 241.52 338.15 240.32L338.15 240.32Q338.15 238.96 339.09 238.18Q340.03 237.40 341.68 237.40L341.68 237.40L342.52 237.40Q344.04 237.40 345.00 238.15Q345.96 238.90 346.03 240.12L346.03 240.12L344.30 240.12Q344.27 239.56 343.78 239.20Q343.30 238.84 342.52 238.84L342.52 238.84L341.68 238.84Q340.81 238.84 340.31 239.24Q339.82 239.64 339.82 240.32L339.82 240.32Q339.82 241.43 340.83 241.58L340.83 241.58L343.53 241.96Q346.19 242.34 346.19 245.07L346.19 245.07Q346.19 246.54 345.23 247.34Q344.27 248.15 342.52 248.15L342.52 248.15ZM357.79 248L354.75 248Q353.45 248 352.67 247.25Q351.90 246.50 351.90 245.25L351.90 245.25L351.90 239.11L348.89 239.11L348.89 237.55L351.90 237.55L351.90 234.60L353.61 234.60L353.61 237.55L357.88 237.55L357.88 239.11L353.61 239.11L353.61 245.25Q353.61 245.78 353.92 246.11Q354.23 246.44 354.75 246.44L354.75 246.44L357.79 246.44L357.79 248ZM363.44 248L361.73 248L361.73 237.55L363.44 237.55L363.44 239.54L363.48 239.54Q363.61 238.54 364.33 237.95Q365.05 237.36 366.27 237.36L366.27 237.36Q367.90 237.36 368.79 238.34Q369.67 239.32 369.67 241.12L369.67 241.12L369.67 242.01L367.96 242.01L367.96 241.12Q367.96 238.84 365.74 238.84L365.74 238.84Q364.62 238.84 364.03 239.49Q363.44 240.13 363.44 241.35L363.44 241.35L363.44 248ZM376.90 248.15L376.90 248.15Q375.02 248.15 373.91 247.05Q372.80 245.95 372.80 243.97L372.80 243.97L372.80 241.58Q372.80 239.58 373.90 238.49Q375.00 237.40 376.90 237.40L376.90 237.40Q378.80 237.40 379.90 238.49Q381.00 239.58 381.00 241.58L381.00 241.58L381.00 243.97Q381.00 245.95 379.89 247.05Q378.78 248.15 376.90 248.15ZM376.90 246.63L376.90 246.63Q378.02 246.63 378.66 246.00Q379.29 245.38 379.29 244.16L379.29 244.16L379.29 241.39Q379.29 240.17 378.66 239.54Q378.02 238.92 376.90 238.92L376.90 238.92Q375.80 238.92 375.15 239.54Q374.51 240.17 374.51 241.39L374.51 241.39L374.51 244.16Q374.51 245.38 375.15 246.00Q375.80 246.63 376.90 246.63ZM388.92 248.15L388.08 248.15Q386.33 248.15 385.37 247.36Q384.42 246.57 384.42 245.13L384.42 245.13L386.13 245.13Q386.13 245.85 386.64 246.26Q387.15 246.67 388.08 246.67L388.08 246.67L388.92 246.67Q389.87 246.67 390.39 246.25Q390.91 245.83 390.91 245.07L390.91 245.07Q390.91 243.72 389.68 243.55L389.68 243.55L386.79 243.14Q385.73 242.98 385.14 242.25Q384.55 241.52 384.55 240.32L384.55 240.32Q384.55 238.96 385.49 238.18Q386.43 237.40 388.08 237.40L388.08 237.40L388.92 237.40Q390.44 237.40 391.40 238.15Q392.36 238.90 392.43 240.12L392.43 240.12L390.70 240.12Q390.67 239.56 390.18 239.20Q389.70 238.84 388.92 238.84L388.92 238.84L388.08 238.84Q387.21 238.84 386.71 239.24Q386.22 239.64 386.22 240.32L386.22 240.32Q386.22 241.43 387.23 241.58L387.23 241.58L389.93 241.96Q392.59 242.34 392.59 245.07L392.59 245.07Q392.59 246.54 391.63 247.34Q390.67 248.15 388.92 248.15L388.92 248.15ZM411.09 248.19L411.09 248.19Q409.53 248.19 408.59 247.15Q407.65 246.10 407.65 244.31L407.65 244.31L407.65 241.25Q407.65 239.45 408.58 238.41Q409.52 237.36 411.09 237.36L411.09 237.36Q412.27 237.36 413.04 237.95Q413.81 238.54 413.96 239.54L413.96 239.54L413.98 239.54L413.94 237.17L413.94 234.13L415.65 234.13L415.65 248L413.94 248L413.94 246.00L413.92 246.00Q413.79 247.03 413.03 247.61Q412.27 248.19 411.09 248.19ZM411.66 246.71L411.66 246.71Q412.73 246.71 413.33 246.04Q413.94 245.38 413.94 244.20L413.94 244.20L413.94 241.35Q413.94 240.17 413.33 239.51Q412.73 238.84 411.66 238.84L411.66 238.84Q410.58 238.84 409.97 239.40Q409.36 239.96 409.36 241.25L409.36 241.25L409.36 244.29Q409.36 245.57 409.97 246.14Q410.58 246.71 411.66 246.71ZM423.30 248.19L423.30 248.19Q421.46 248.19 420.33 247.08Q419.20 245.97 419.20 244.01L419.20 244.01L419.20 241.54Q419.20 239.58 420.33 238.47Q421.46 237.36 423.30 237.36L423.30 237.36Q424.54 237.36 425.46 237.85Q426.38 238.35 426.89 239.24Q427.40 240.13 427.40 241.35L427.40 241.35L427.40 243.21L420.87 243.21L420.87 244.20Q420.87 245.36 421.53 246.03Q422.20 246.71 423.30 246.71L423.30 246.71Q424.25 246.71 424.87 246.34Q425.49 245.97 425.62 245.34L425.62 245.34L427.33 245.34Q427.16 246.65 426.06 247.42Q424.95 248.19 423.30 248.19ZM420.87 241.35L420.87 241.88L425.73 241.88L425.73 241.35Q425.73 240.12 425.10 239.44Q424.46 238.77 423.30 238.77L423.30 238.77Q422.14 238.77 421.50 239.44Q420.87 240.12 420.87 241.35L420.87 241.35ZM446.92 248.15L446.08 248.15Q444.33 248.15 443.37 247.36Q442.42 246.57 442.42 245.13L442.42 245.13L444.13 245.13Q444.13 245.85 444.64 246.26Q445.15 246.67 446.08 246.67L446.08 246.67L446.92 246.67Q447.87 246.67 448.39 246.25Q448.91 245.83 448.91 245.07L448.91 245.07Q448.91 243.72 447.68 243.55L447.68 243.55L444.79 243.14Q443.73 242.98 443.14 242.25Q442.55 241.52 442.55 240.32L442.55 240.32Q442.55 238.96 443.49 238.18Q444.43 237.40 446.08 237.40L446.08 237.40L446.92 237.40Q448.44 237.40 449.40 238.15Q450.36 238.90 450.43 240.12L450.43 240.12L448.70 240.12Q448.67 239.56 448.18 239.20Q447.70 238.84 446.92 238.84L446.92 238.84L446.08 238.84Q445.21 238.84 444.71 239.24Q444.22 239.64 444.22 240.32L444.22 240.32Q444.22 241.43 445.23 241.58L445.23 241.58L447.93 241.96Q450.59 242.34 450.59 245.07L450.59 245.07Q450.59 246.54 449.63 247.34Q448.67 248.15 446.92 248.15L446.92 248.15ZM458.10 248.15L458.10 248.15Q456.22 248.15 455.11 247.05Q454.00 245.95 454.00 243.97L454.00 243.97L454.00 241.58Q454.00 239.58 455.10 238.49Q456.20 237.40 458.10 237.40L458.10 237.40Q460.00 237.40 461.10 238.49Q462.20 239.58 462.20 241.58L462.20 241.58L462.20 243.97Q462.20 245.95 461.09 247.05Q459.98 248.15 458.10 248.15ZM458.10 246.63L458.10 246.63Q459.22 246.63 459.86 246.00Q460.49 245.38 460.49 244.16L460.49 244.16L460.49 241.39Q460.49 240.17 459.86 239.54Q459.22 238.92 458.10 238.92L458.10 238.92Q457.00 238.92 456.35 239.54Q455.71 240.17 455.71 241.39L455.71 241.39L455.71 244.16Q455.71 245.38 456.35 246.00Q457.00 246.63 458.10 246.63ZM469.80 248L468.09 248L468.09 240.53L465.05 240.53L465.05 238.97L468.09 238.97L468.09 236.79Q468.09 235.56 468.86 234.84Q469.64 234.13 471.01 234.13L471.01 234.13L474.07 234.13L474.07 235.69L471.01 235.69Q469.80 235.69 469.80 236.79L469.80 236.79L469.80 238.97L474.07 238.97L474.07 240.53L469.80 240.53L469.80 248ZM485.39 248L482.35 248Q481.05 248 480.27 247.25Q479.50 246.50 479.50 245.25L479.50 245.25L479.50 239.11L476.49 239.11L476.49 237.55L479.50 237.55L479.50 234.60L481.21 234.60L481.21 237.55L485.48 237.55L485.48 239.11L481.21 239.11L481.21 245.25Q481.21 245.78 481.52 246.11Q481.83 246.44 482.35 246.44L482.35 246.44L485.39 246.44L485.39 248ZM491.38 248L489.50 248L487.79 237.55L489.27 237.55L490.34 244.92Q490.39 245.34 490.45 245.84Q490.51 246.35 490.53 246.67L490.53 246.67Q490.56 246.35 490.61 245.84Q490.66 245.34 490.73 244.92L490.73 244.92L492.05 237.55L493.76 237.55L495.07 244.92Q495.14 245.34 495.21 245.84Q495.28 246.35 495.29 246.67L495.29 246.67Q495.33 246.35 495.39 245.84Q495.45 245.34 495.50 244.92L495.50 244.92L496.61 237.55L498.01 237.55L496.23 248L494.34 248L493.15 240.78Q493.07 240.25 493.00 239.65Q492.94 239.05 492.90 238.73L492.90 238.73Q492.88 239.05 492.81 239.65Q492.73 240.25 492.63 240.78L492.63 240.78L491.38 248ZM503.59 248.19L503.59 248.19Q501.97 248.19 501.02 247.29Q500.07 246.38 500.07 244.92L500.07 244.92Q500.07 243.95 500.51 243.23Q500.95 242.51 501.73 242.10Q502.51 241.69 503.51 241.69L503.51 241.69L506.74 241.69L506.74 240.88Q506.74 238.84 504.52 238.84L504.52 238.84Q503.53 238.84 502.92 239.20Q502.32 239.56 502.28 240.21L502.28 240.21L500.57 240.21Q500.66 238.97 501.72 238.17Q502.77 237.36 504.52 237.36L504.52 237.36Q506.42 237.36 507.44 238.27Q508.45 239.18 508.45 240.82L508.45 240.82L508.45 248L506.76 248L506.76 246.10L506.72 246.10Q506.57 247.07 505.75 247.63Q504.94 248.19 503.59 248.19ZM504.01 246.75L504.01 246.75Q505.26 246.75 506.00 246.14Q506.74 245.53 506.74 244.49L506.74 244.49L506.74 243.02L503.70 243.02Q502.87 243.02 502.34 243.53Q501.82 244.03 501.82 244.87L501.82 244.87Q501.82 245.74 502.40 246.24Q502.98 246.75 504.01 246.75ZM514.24 248L512.53 248L512.53 237.55L514.24 237.55L514.24 239.54L514.28 239.54Q514.41 238.54 515.13 237.95Q515.85 237.36 517.07 237.36L517.07 237.36Q518.70 237.36 519.59 238.34Q520.47 239.32 520.47 241.12L520.47 241.12L520.47 242.01L518.76 242.01L518.76 241.12Q518.76 238.84 516.54 238.84L516.54 238.84Q515.42 238.84 514.83 239.49Q514.24 240.13 514.24 241.35L514.24 241.35L514.24 248ZM527.70 248.19L527.70 248.19Q525.86 248.19 524.73 247.08Q523.60 245.97 523.60 244.01L523.60 244.01L523.60 241.54Q523.60 239.58 524.73 238.47Q525.86 237.36 527.70 237.36L527.70 237.36Q528.94 237.36 529.86 237.85Q530.78 238.35 531.29 239.24Q531.80 240.13 531.80 241.35L531.80 241.35L531.80 243.21L525.27 243.21L525.27 244.20Q525.27 245.36 525.93 246.03Q526.60 246.71 527.70 246.71L527.70 246.71Q528.65 246.71 529.27 246.34Q529.89 245.97 530.02 245.34L530.02 245.34L531.73 245.34Q531.56 246.65 530.46 247.42Q529.35 248.19 527.70 248.19ZM525.27 241.35L525.27 241.88L530.13 241.88L530.13 241.35Q530.13 240.12 529.50 239.44Q528.86 238.77 527.70 238.77L527.70 238.77Q526.54 238.77 525.90 239.44Q525.27 240.12 525.27 241.35L525.27 241.35ZM548.66 248L546.95 248L546.95 237.55L548.66 237.55L548.66 239.54L548.68 239.54Q548.81 238.50 549.53 237.93Q550.25 237.36 551.45 237.36L551.45 237.36Q553.03 237.36 553.96 238.33Q554.89 239.30 554.89 240.97L554.89 240.97L554.89 248L553.18 248L553.18 241.27Q553.18 240.08 552.58 239.44Q551.98 238.80 550.96 238.80L550.96 238.80Q549.89 238.80 549.28 239.47Q548.66 240.13 548.66 241.35L548.66 241.35L548.66 248ZM562.50 248.15L562.50 248.15Q560.62 248.15 559.51 247.05Q558.40 245.95 558.40 243.97L558.40 243.97L558.40 241.58Q558.40 239.58 559.50 238.49Q560.60 237.40 562.50 237.40L562.50 237.40Q564.40 237.40 565.50 238.49Q566.60 239.58 566.60 241.58L566.60 241.58L566.60 243.97Q566.60 245.95 565.49 247.05Q564.38 248.15 562.50 248.15ZM562.50 246.63L562.50 246.63Q563.62 246.63 564.26 246.00Q564.89 245.38 564.89 244.16L564.89 244.16L564.89 241.39Q564.89 240.17 564.26 239.54Q563.62 238.92 562.50 238.92L562.50 238.92Q561.40 238.92 560.75 239.54Q560.11 240.17 560.11 241.39L560.11 241.39L560.11 244.16Q560.11 245.38 560.75 246.00Q561.40 246.63 562.50 246.63ZM584.18 248L582.03 248L580.38 234.13L581.96 234.13L583.04 244.39Q583.12 245.02 583.15 245.69Q583.19 246.37 583.21 246.76L583.21 246.76Q583.25 246.37 583.32 245.69Q583.38 245.02 583.46 244.39L583.46 244.39L584.83 234.13L586.67 234.13L587.92 244.39Q588.00 245.02 588.08 245.69Q588.15 246.37 588.19 246.76L588.19 246.76Q588.23 246.37 588.27 245.69Q588.32 245.02 588.40 244.39L588.40 244.39L589.52 234.13L591.02 234.13L589.33 248L587.18 248L585.93 237.55Q585.85 236.90 585.81 236.29Q585.78 235.67 585.74 235.33L585.74 235.33Q585.70 235.67 585.66 236.29Q585.62 236.90 585.53 237.55L585.53 237.55L584.18 248ZM602.15 248L593.22 248L593.22 246.44L596.92 246.44L596.92 239.11L593.60 239.11L593.60 237.55L598.63 237.55L598.63 246.44L602.15 246.44L602.15 248ZM597.59 235.67L597.59 235.67Q596.96 235.67 596.60 235.35Q596.24 235.02 596.24 234.47L596.24 234.47Q596.24 233.90 596.60 233.57Q596.96 233.24 597.59 233.24L597.59 233.24Q598.21 233.24 598.57 233.57Q598.93 233.90 598.93 234.47L598.93 234.47Q598.93 235.02 598.57 235.35Q598.21 235.67 597.59 235.67ZM606.66 248L604.95 248L604.95 237.55L606.66 237.55L606.66 239.54L606.68 239.54Q606.81 238.50 607.53 237.93Q608.25 237.36 609.45 237.36L609.45 237.36Q611.03 237.36 611.96 238.33Q612.89 239.30 612.89 240.97L612.89 240.97L612.89 248L611.18 248L611.18 241.27Q611.18 240.08 610.58 239.44Q609.98 238.80 608.96 238.80L608.96 238.80Q607.89 238.80 607.28 239.47Q606.66 240.13 606.66 241.35L606.66 241.35L606.66 248ZM619.89 248.19L619.89 248.19Q618.33 248.19 617.39 247.15Q616.45 246.10 616.45 244.31L616.45 244.31L616.45 241.25Q616.45 239.45 617.38 238.41Q618.32 237.36 619.89 237.36L619.89 237.36Q621.07 237.36 621.84 237.95Q622.61 238.54 622.76 239.54L622.76 239.54L622.78 239.54L622.74 237.17L622.74 234.13L624.45 234.13L624.45 248L622.74 248L622.74 246.00L622.72 246.00Q622.59 247.03 621.83 247.61Q621.07 248.19 619.89 248.19ZM620.46 246.71L620.46 246.71Q621.53 246.71 622.13 246.04Q622.74 245.38 622.74 244.20L622.74 244.20L622.74 241.35Q622.74 240.17 622.13 239.51Q621.53 238.84 620.46 238.84L620.46 238.84Q619.38 238.84 618.77 239.40Q618.16 239.96 618.16 241.25L618.16 241.25L618.16 244.29Q618.16 245.57 618.77 246.14Q619.38 246.71 620.46 246.71ZM632.10 248.15L632.10 248.15Q630.22 248.15 629.11 247.05Q628.00 245.95 628.00 243.97L628.00 243.97L628.00 241.58Q628.00 239.58 629.10 238.49Q630.20 237.40 632.10 237.40L632.10 237.40Q634.00 237.40 635.10 238.49Q636.20 239.58 636.20 241.58L636.20 241.58L636.20 243.97Q636.20 245.95 635.09 247.05Q633.98 248.15 632.10 248.15ZM632.10 246.63L632.10 246.63Q633.22 246.63 633.86 246.00Q634.49 245.38 634.49 244.16L634.49 244.16L634.49 241.39Q634.49 240.17 633.86 239.54Q633.22 238.92 632.10 238.92L632.10 238.92Q631.00 238.92 630.35 239.54Q629.71 240.17 629.71 241.39L629.71 241.39L629.71 244.16Q629.71 245.38 630.35 246.00Q631.00 246.63 632.10 246.63ZM642.18 248L640.30 248L638.59 237.55L640.07 237.55L641.14 244.92Q641.19 245.34 641.25 245.84Q641.31 246.35 641.33 246.67L641.33 246.67Q641.36 246.35 641.41 245.84Q641.46 245.34 641.53 244.92L641.53 244.92L642.85 237.55L644.56 237.55L645.87 244.92Q645.94 245.34 646.01 245.84Q646.08 246.35 646.09 246.67L646.09 246.67Q646.13 246.35 646.19 245.84Q646.25 245.34 646.30 244.92L646.30 244.92L647.41 237.55L648.81 237.55L647.03 248L645.14 248L643.95 240.78Q643.87 240.25 643.80 239.65Q643.74 239.05 643.70 238.73L643.70 238.73Q643.68 239.05 643.61 239.65Q643.53 240.25 643.43 240.78L643.43 240.78L642.18 248ZM655.72 248.15L654.88 248.15Q653.13 248.15 652.17 247.36Q651.22 246.57 651.22 245.13L651.22 245.13L652.93 245.13Q652.93 245.85 653.44 246.26Q653.95 246.67 654.88 246.67L654.88 246.67L655.72 246.67Q656.67 246.67 657.19 246.25Q657.71 245.83 657.71 245.07L657.71 245.07Q657.71 243.72 656.48 243.55L656.48 243.55L653.59 243.14Q652.53 242.98 651.94 242.25Q651.35 241.52 651.35 240.32L651.35 240.32Q651.35 238.96 652.29 238.18Q653.23 237.40 654.88 237.40L654.88 237.40L655.72 237.40Q657.24 237.40 658.20 238.15Q659.16 238.90 659.23 240.12L659.23 240.12L657.50 240.12Q657.47 239.56 656.98 239.20Q656.50 238.84 655.72 238.84L655.72 238.84L654.88 238.84Q654.01 238.84 653.51 239.24Q653.02 239.64 653.02 240.32L653.02 240.32Q653.02 241.43 654.03 241.58L654.03 241.58L656.73 241.96Q659.39 242.34 659.39 245.07L659.39 245.07Q659.39 246.54 658.43 247.34Q657.47 248.15 655.72 248.15L655.72 248.15Z" fill="#8B949E"></path></g>

    
    <g font-family="ui-monospace, &#39;SF Mono&#39;, &#39;Cascadia Code&#39;, &#39;JetBrains Mono&#39;, Consolas, monospace" font-size="15">
      <rect x="56" y="292" width="215" height="40" rx="20" fill="#161B22" stroke="#1F8FFF" stroke-opacity="0.45"></rect>
      <circle cx="80" cy="312" r="4" fill="#1F8FFF"></circle>
      <g><path d="M99.30 317L97.61 317L96.30 306.05L97.55 306.05L98.40 314.15Q98.46 314.64 98.49 315.18Q98.52 315.71 98.53 316.02L98.53 316.02Q98.56 315.71 98.62 315.18Q98.67 314.64 98.73 314.15L98.73 314.15L99.81 306.05L101.27 306.05L102.25 314.15Q102.31 314.64 102.38 315.18Q102.44 315.71 102.47 316.02L102.47 316.02Q102.50 315.71 102.53 315.18Q102.57 314.64 102.63 314.15L102.63 314.15L103.52 306.05L104.70 306.05L103.36 317L101.67 317L100.68 308.75Q100.62 308.24 100.59 307.75Q100.56 307.26 100.53 307.00L100.53 307.00Q100.50 307.26 100.47 307.75Q100.44 308.24 100.36 308.75L100.36 308.75L99.30 317ZM113.33 317L106.28 317L106.28 315.77L109.20 315.77L109.20 309.98L106.58 309.98L106.58 308.75L110.55 308.75L110.55 315.77L113.33 315.77L113.33 317ZM109.72 307.26L109.72 307.26Q109.23 307.26 108.94 307.01Q108.66 306.75 108.66 306.32L108.66 306.32Q108.66 305.87 108.94 305.61Q109.23 305.35 109.72 305.35L109.72 305.35Q110.22 305.35 110.50 305.61Q110.79 305.87 110.79 306.32L110.79 306.32Q110.79 306.75 110.50 307.01Q110.22 307.26 109.72 307.26ZM116.73 317L115.38 317L115.38 308.75L116.73 308.75L116.73 310.32L116.75 310.32Q116.85 309.50 117.42 309.05Q117.99 308.60 118.94 308.60L118.94 308.60Q120.18 308.60 120.92 309.37Q121.65 310.13 121.65 311.45L121.65 311.45L121.65 317L120.30 317L120.30 311.69Q120.30 310.75 119.83 310.24Q119.36 309.74 118.55 309.74L118.55 309.74Q117.70 309.74 117.22 310.26Q116.73 310.79 116.73 311.75L116.73 311.75L116.73 317ZM127.02 317.15L127.02 317.15Q125.79 317.15 125.05 316.32Q124.31 315.50 124.31 314.09L124.31 314.09L124.31 311.68Q124.31 310.25 125.04 309.43Q125.78 308.60 127.02 308.60L127.02 308.60Q127.95 308.60 128.56 309.06Q129.16 309.53 129.28 310.32L129.28 310.32L129.30 310.32L129.27 308.45L129.27 306.05L130.62 306.05L130.62 317L129.27 317L129.27 315.43L129.25 315.43Q129.15 316.24 128.55 316.69Q127.95 317.15 127.02 317.15ZM127.47 315.98L127.47 315.98Q128.31 315.98 128.79 315.45Q129.27 314.93 129.27 314L129.27 314L129.27 311.75Q129.27 310.82 128.79 310.30Q128.31 309.77 127.47 309.77L127.47 309.77Q126.61 309.77 126.14 310.21Q125.66 310.65 125.66 311.68L125.66 311.68L125.66 314.07Q125.66 315.08 126.14 315.53Q126.61 315.98 127.47 315.98ZM136.50 317.12L136.50 317.12Q135.01 317.12 134.14 316.25Q133.26 315.38 133.26 313.82L133.26 313.82L133.26 311.93Q133.26 310.36 134.13 309.49Q135 308.63 136.50 308.63L136.50 308.63Q138 308.63 138.87 309.49Q139.74 310.36 139.74 311.93L139.74 311.93L139.74 313.82Q139.74 315.38 138.86 316.25Q137.99 317.12 136.50 317.12ZM136.50 315.92L136.50 315.92Q137.38 315.92 137.89 315.43Q138.39 314.93 138.39 313.97L138.39 313.97L138.39 311.78Q138.39 310.82 137.89 310.32Q137.38 309.83 136.50 309.83L136.50 309.83Q135.63 309.83 135.12 310.32Q134.61 310.82 134.61 311.78L134.61 311.78L134.61 313.97Q134.61 314.93 135.12 315.43Q135.63 315.92 136.50 315.92ZM144.30 317L142.81 317L141.47 308.75L142.63 308.75L143.47 314.57Q143.52 314.90 143.56 315.30Q143.61 315.69 143.63 315.95L143.63 315.95Q143.66 315.69 143.69 315.30Q143.73 314.90 143.79 314.57L143.79 314.57L144.82 308.75L146.18 308.75L147.21 314.57Q147.27 314.90 147.32 315.30Q147.38 315.69 147.39 315.95L147.39 315.95Q147.42 315.69 147.47 315.30Q147.51 314.90 147.56 314.57L147.56 314.57L148.43 308.75L149.53 308.75L148.13 317L146.64 317L145.69 311.30Q145.63 310.88 145.58 310.41Q145.53 309.94 145.50 309.68L145.50 309.68Q145.49 309.94 145.43 310.41Q145.37 310.88 145.29 311.30L145.29 311.30L144.30 317ZM154.83 317.12L154.17 317.12Q152.79 317.12 152.03 316.50Q151.28 315.88 151.28 314.74L151.28 314.74L152.63 314.74Q152.63 315.31 153.03 315.63Q153.44 315.95 154.17 315.95L154.17 315.95L154.83 315.95Q155.58 315.95 155.99 315.62Q156.41 315.29 156.41 314.69L156.41 314.69Q156.41 313.63 155.43 313.49L155.43 313.49L153.15 313.16Q152.31 313.04 151.84 312.46Q151.38 311.88 151.38 310.94L151.38 310.94Q151.38 309.86 152.12 309.25Q152.87 308.63 154.17 308.63L154.17 308.63L154.83 308.63Q156.03 308.63 156.79 309.22Q157.54 309.81 157.60 310.77L157.60 310.77L156.24 310.77Q156.21 310.34 155.83 310.06Q155.44 309.77 154.83 309.77L154.83 309.77L154.17 309.77Q153.48 309.77 153.09 310.08Q152.70 310.40 152.70 310.94L152.70 310.94Q152.70 311.81 153.50 311.93L153.50 311.93L155.63 312.23Q157.72 312.53 157.72 314.69L157.72 314.69Q157.72 315.85 156.97 316.48Q156.21 317.12 154.83 317.12L154.83 317.12ZM176.10 317L169.35 317L169.35 315.77L172.32 315.77L172.32 307.22L169.35 309.44L169.35 307.89L171.82 306.05L173.67 306.05L173.67 315.77L176.10 315.77L176.10 317ZM181.50 317.15L181.50 317.15Q179.99 317.15 179.09 316.27Q178.20 315.39 178.20 313.93L178.20 313.93L178.20 309.13Q178.20 307.65 179.09 306.78Q179.99 305.90 181.50 305.90L181.50 305.90Q183.01 305.90 183.91 306.78Q184.80 307.65 184.80 309.13L184.80 309.13L184.80 313.93Q184.80 314.90 184.40 315.63Q183.99 316.36 183.25 316.75Q182.50 317.15 181.50 317.15ZM181.50 316.00L181.50 316.00Q182.40 316.00 182.95 315.42Q183.50 314.84 183.50 313.93L183.50 313.93L183.50 309.13Q183.50 308.21 182.95 307.63Q182.40 307.06 181.50 307.06L181.50 307.06Q180.60 307.06 180.05 307.63Q179.50 308.21 179.50 309.13L179.50 309.13L179.50 313.93Q179.50 314.84 180.05 315.42Q180.60 316.00 181.50 316.00ZM181.50 312.35L181.50 312.35Q181.09 312.35 180.85 312.13Q180.60 311.90 180.60 311.48L180.60 311.48Q180.60 311.07 180.85 310.86Q181.09 310.64 181.50 310.64L181.50 310.64Q181.91 310.64 182.15 310.86Q182.40 311.07 182.40 311.48L182.40 311.48Q182.40 311.90 182.15 312.13Q181.91 312.35 181.50 312.35ZM188.55 318.65L187.13 318.65L192.45 304.55L193.88 304.55L188.55 318.65ZM203.10 317L196.35 317L196.35 315.77L199.32 315.77L199.32 307.22L196.35 309.44L196.35 307.89L198.82 306.05L200.67 306.05L200.67 315.77L203.10 315.77L203.10 317ZM212.10 317L205.35 317L205.35 315.77L208.32 315.77L208.32 307.22L205.35 309.44L205.35 307.89L207.82 306.05L209.67 306.05L209.67 315.77L212.10 315.77L212.10 317ZM224.34 317L222.75 317L225.68 312.75L222.93 308.75L224.52 308.75L226.16 311.30Q226.26 311.46 226.36 311.66Q226.46 311.86 226.51 311.98L226.51 311.98Q226.56 311.86 226.66 311.66Q226.75 311.46 226.86 311.30L226.86 311.30L228.50 308.75L230.09 308.75L227.34 312.77L230.25 317L228.66 317L226.89 314.30Q226.78 314.13 226.69 313.92Q226.59 313.70 226.51 313.56L226.51 313.56Q226.46 313.70 226.34 313.92Q226.23 314.13 226.11 314.30L226.11 314.30L224.34 317ZM235.51 317.15L235.51 317.15Q234.47 317.15 233.66 316.71Q232.86 316.26 232.41 315.48Q231.96 314.69 231.96 313.65L231.96 313.65Q231.96 312.94 232.23 312.18Q232.50 311.42 232.97 310.60L232.97 310.60L235.50 306.05L237 306.05L234.30 310.75L234.34 310.77Q234.54 310.52 234.93 310.38Q235.32 310.25 235.78 310.25L235.78 310.25Q236.76 310.25 237.49 310.68Q238.22 311.11 238.63 311.86Q239.04 312.61 239.04 313.60L239.04 313.60Q239.04 314.64 238.59 315.45Q238.14 316.25 237.35 316.70Q236.56 317.15 235.51 317.15ZM235.50 315.95L235.50 315.95Q236.47 315.95 237.08 315.31Q237.69 314.66 237.69 313.63L237.69 313.63Q237.69 312.59 237.08 311.94Q236.47 311.30 235.50 311.30L235.50 311.30Q234.53 311.30 233.92 311.94Q233.31 312.59 233.31 313.63L233.31 313.63Q233.31 314.66 233.92 315.31Q234.53 315.95 235.50 315.95ZM247.35 317L246 317L246 314.60L241.05 314.60L241.05 312.49L245.04 306.05L246.57 306.05L242.40 312.79L242.40 313.37L246 313.37L246 310.70L247.35 310.70L247.35 317Z" fill="#C9D1D9"></path></g>

      <rect x="287" y="292" width="120" height="40" rx="20" fill="#161B22" stroke="#17B47E" stroke-opacity="0.45"></rect>
      <circle cx="311" cy="312" r="4" fill="#17B47E"></circle>
      <g><path d="M331.50 317.15L331.50 317.15Q330.94 317.15 330.61 316.82Q330.27 316.49 330.27 315.96L330.27 315.96Q330.27 315.41 330.61 315.06Q330.94 314.72 331.50 314.72L331.50 314.72Q332.06 314.72 332.39 315.06Q332.73 315.41 332.73 315.96L332.73 315.96Q332.73 316.49 332.39 316.82Q332.06 317.15 331.50 317.15ZM338.65 317L337.35 317L337.35 306.05L339.15 306.05L342.50 315.43Q342.46 315.05 342.43 314.50Q342.39 313.95 342.37 313.35Q342.35 312.74 342.35 312.20L342.35 312.20L342.35 306.05L343.65 306.05L343.65 317L341.85 317L338.52 307.63Q338.55 307.99 338.58 308.53Q338.61 309.08 338.63 309.69Q338.65 310.30 338.65 310.85L338.65 310.85L338.65 317ZM352.80 317L346.50 317L346.50 306.05L352.80 306.05L352.80 307.28L347.83 307.28L347.83 310.67L352.27 310.67L352.27 311.87L347.83 311.87L347.83 315.77L352.80 315.77L352.80 317ZM359.18 317L357.82 317L357.82 307.28L354.82 307.28L354.82 306.05L362.18 306.05L362.18 307.28L359.18 307.28L359.18 317ZM380.10 317L373.35 317L373.35 315.77L376.32 315.77L376.32 307.22L373.35 309.44L373.35 307.89L375.82 306.05L377.67 306.05L377.67 315.77L380.10 315.77L380.10 317ZM385.50 317.15L385.50 317.15Q383.99 317.15 383.09 316.27Q382.20 315.39 382.20 313.93L382.20 313.93L382.20 309.13Q382.20 307.65 383.09 306.78Q383.99 305.90 385.50 305.90L385.50 305.90Q387.01 305.90 387.91 306.78Q388.80 307.65 388.80 309.13L388.80 309.13L388.80 313.93Q388.80 314.90 388.39 315.63Q387.99 316.36 387.25 316.75Q386.50 317.15 385.50 317.15ZM385.50 316.00L385.50 316.00Q386.40 316.00 386.95 315.42Q387.50 314.84 387.50 313.93L387.50 313.93L387.50 309.13Q387.50 308.21 386.95 307.63Q386.40 307.06 385.50 307.06L385.50 307.06Q384.60 307.06 384.05 307.63Q383.50 308.21 383.50 309.13L383.50 309.13L383.50 313.93Q383.50 314.84 384.05 315.42Q384.60 316.00 385.50 316.00ZM385.50 312.35L385.50 312.35Q385.10 312.35 384.85 312.13Q384.60 311.90 384.60 311.48L384.60 311.48Q384.60 311.07 384.85 310.86Q385.10 310.64 385.50 310.64L385.50 310.64Q385.90 310.64 386.15 310.86Q386.40 311.07 386.40 311.48L386.40 311.48Q386.40 311.90 386.15 312.13Q385.90 312.35 385.50 312.35Z" fill="#C9D1D9"></path></g>

      <rect x="423" y="292" width="290" height="40" rx="20" fill="#161B22" stroke="#F39C3D" stroke-opacity="0.45"></rect>
      <circle cx="447" cy="312" r="4" fill="#F39C3D"></circle>
      <g><path d="M467.83 317.12L467.17 317.12Q465.79 317.12 465.03 316.50Q464.27 315.88 464.27 314.74L464.27 314.74L465.63 314.74Q465.63 315.31 466.03 315.63Q466.44 315.95 467.17 315.95L467.17 315.95L467.83 315.95Q468.58 315.95 468.99 315.62Q469.40 315.29 469.40 314.69L469.40 314.69Q469.40 313.63 468.43 313.49L468.43 313.49L466.15 313.16Q465.31 313.04 464.85 312.46Q464.38 311.88 464.38 310.94L464.38 310.94Q464.38 309.86 465.12 309.25Q465.87 308.63 467.17 308.63L467.17 308.63L467.83 308.63Q469.03 308.63 469.79 309.22Q470.55 309.81 470.61 310.77L470.61 310.77L469.24 310.77Q469.21 310.34 468.83 310.06Q468.44 309.77 467.83 309.77L467.83 309.77L467.17 309.77Q466.48 309.77 466.09 310.08Q465.70 310.40 465.70 310.94L465.70 310.94Q465.70 311.81 466.50 311.93L466.50 311.93L468.63 312.23Q470.73 312.53 470.73 314.69L470.73 314.69Q470.73 315.85 469.97 316.48Q469.21 317.12 467.83 317.12L467.83 317.12ZM476.50 317.12L476.50 317.12Q475.01 317.12 474.14 316.25Q473.26 315.38 473.26 313.82L473.26 313.82L473.26 311.93Q473.26 310.36 474.13 309.49Q475 308.63 476.50 308.63L476.50 308.63Q478 308.63 478.87 309.49Q479.74 310.36 479.74 311.93L479.74 311.93L479.74 313.82Q479.74 315.38 478.86 316.25Q477.99 317.12 476.50 317.12ZM476.50 315.92L476.50 315.92Q477.38 315.92 477.89 315.43Q478.39 314.93 478.39 313.97L478.39 313.97L478.39 311.78Q478.39 310.82 477.89 310.32Q477.38 309.83 476.50 309.83L476.50 309.83Q475.63 309.83 475.12 310.32Q474.61 310.82 474.61 311.78L474.61 311.78L474.61 313.97Q474.61 314.93 475.12 315.43Q475.63 315.92 476.50 315.92ZM483.16 317L481.90 317L481.90 308.75L483.07 308.75L483.07 309.85L483.10 309.85Q483.18 309.29 483.54 308.94Q483.91 308.60 484.48 308.60L484.48 308.60Q485.02 308.60 485.39 308.92Q485.77 309.23 485.94 309.77L485.94 309.77L485.95 309.77Q486.06 309.23 486.42 308.92Q486.79 308.60 487.36 308.60L487.36 308.60Q488.15 308.60 488.63 309.19Q489.10 309.79 489.10 310.73L489.10 310.73L489.10 317L487.84 317L487.84 310.71Q487.84 310.22 487.60 309.93Q487.36 309.63 486.94 309.63L486.94 309.63Q486.54 309.63 486.30 309.92Q486.06 310.20 486.06 310.70L486.06 310.70L486.06 317L484.94 317L484.94 310.71Q484.94 310.22 484.70 309.93Q484.46 309.63 484.06 309.63L484.06 309.63Q483.64 309.63 483.40 309.92Q483.16 310.20 483.16 310.70L483.16 310.70L483.16 317ZM494.50 317.15L494.50 317.15Q493.05 317.15 492.15 316.27Q491.26 315.39 491.26 313.85L491.26 313.85L491.26 311.90Q491.26 310.36 492.15 309.48Q493.05 308.60 494.50 308.60L494.50 308.60Q495.48 308.60 496.20 308.99Q496.93 309.38 497.33 310.08Q497.74 310.79 497.74 311.75L497.74 311.75L497.74 313.22L492.58 313.22L492.58 314Q492.58 314.92 493.11 315.45Q493.63 315.98 494.50 315.98L494.50 315.98Q495.25 315.98 495.74 315.69Q496.23 315.39 496.33 314.90L496.33 314.90L497.68 314.90Q497.55 315.94 496.68 316.54Q495.81 317.15 494.50 317.15ZM492.58 311.75L492.58 312.17L496.42 312.17L496.42 311.75Q496.42 310.77 495.92 310.24Q495.42 309.71 494.50 309.71L494.50 309.71Q493.58 309.71 493.08 310.24Q492.58 310.77 492.58 311.75L492.58 311.75ZM501.73 317L500.38 317L500.38 308.75L501.73 308.75L501.73 310.32L501.75 310.32Q501.85 309.50 502.42 309.05Q502.99 308.60 503.94 308.60L503.94 308.60Q505.18 308.60 505.92 309.37Q506.65 310.13 506.65 311.45L506.65 311.45L506.65 317L505.30 317L505.30 311.69Q505.30 310.75 504.83 310.24Q504.36 309.74 503.55 309.74L503.55 309.74Q502.70 309.74 502.22 310.26Q501.73 310.79 501.73 311.75L501.73 311.75L501.73 317ZM515.73 317L513.33 317Q512.30 317 511.69 316.41Q511.07 315.81 511.07 314.82L511.07 314.82L511.07 309.98L508.70 309.98L508.70 308.75L511.07 308.75L511.07 306.43L512.42 306.43L512.42 308.75L515.80 308.75L515.80 309.98L512.42 309.98L512.42 314.82Q512.42 315.25 512.67 315.51Q512.92 315.77 513.33 315.77L513.33 315.77L515.73 315.77L515.73 317ZM521.50 317.15L521.50 317.15Q520.04 317.15 519.15 316.27Q518.26 315.39 518.26 313.85L518.26 313.85L518.26 311.90Q518.26 310.36 519.15 309.48Q520.04 308.60 521.50 308.60L521.50 308.60Q522.48 308.60 523.20 308.99Q523.93 309.38 524.34 310.08Q524.74 310.79 524.74 311.75L524.74 311.75L524.74 313.22L519.58 313.22L519.58 314Q519.58 314.92 520.11 315.45Q520.63 315.98 521.50 315.98L521.50 315.98Q522.25 315.98 522.74 315.69Q523.23 315.39 523.33 314.90L523.33 314.90L524.68 314.90Q524.54 315.94 523.67 316.54Q522.80 317.15 521.50 317.15ZM519.58 311.75L519.58 312.17L523.42 312.17L523.42 311.75Q523.42 310.77 522.92 310.24Q522.41 309.71 521.50 309.71L521.50 309.71Q520.59 309.71 520.08 310.24Q519.58 310.77 519.58 311.75L519.58 311.75ZM543.25 317L540.70 317Q539.61 317 538.95 316.36Q538.30 315.73 538.30 314.68L538.30 314.68L538.30 307.28L535.45 307.28L535.45 306.05L539.65 306.05L539.65 314.68Q539.65 315.19 539.93 315.48Q540.22 315.77 540.70 315.77L540.70 315.77L543.25 315.77L543.25 317ZM548.50 317.15L548.50 317.15Q547.04 317.15 546.15 316.27Q545.26 315.39 545.26 313.85L545.26 313.85L545.26 311.90Q545.26 310.36 546.15 309.48Q547.04 308.60 548.50 308.60L548.50 308.60Q549.48 308.60 550.20 308.99Q550.93 309.38 551.34 310.08Q551.74 310.79 551.74 311.75L551.74 311.75L551.74 313.22L546.58 313.22L546.58 314Q546.58 314.92 547.11 315.45Q547.63 315.98 548.50 315.98L548.50 315.98Q549.25 315.98 549.74 315.69Q550.23 315.39 550.33 314.90L550.33 314.90L551.68 314.90Q551.54 315.94 550.67 316.54Q549.80 317.15 548.50 317.15ZM546.58 311.75L546.58 312.17L550.42 312.17L550.42 311.75Q550.42 310.77 549.92 310.24Q549.41 309.71 548.50 309.71L548.50 309.71Q547.59 309.71 547.08 310.24Q546.58 310.77 546.58 311.75L546.58 311.75ZM561.33 317L554.27 317L554.27 315.77L557.20 315.77L557.20 309.98L554.58 309.98L554.58 308.75L558.55 308.75L558.55 315.77L561.33 315.77L561.33 317ZM557.73 307.26L557.73 307.26Q557.23 307.26 556.95 307.01Q556.66 306.75 556.66 306.32L556.66 306.32Q556.66 305.87 556.95 305.61Q557.23 305.35 557.73 305.35L557.73 305.35Q558.22 305.35 558.50 305.61Q558.79 305.87 558.79 306.32L558.79 306.32Q558.79 306.75 558.50 307.01Q558.22 307.26 557.73 307.26ZM569.73 317L567.33 317Q566.30 317 565.69 316.41Q565.08 315.81 565.08 314.82L565.08 314.82L565.08 309.98L562.71 309.98L562.71 308.75L565.08 308.75L565.08 306.43L566.42 306.43L566.42 308.75L569.80 308.75L569.80 309.98L566.42 309.98L566.42 314.82Q566.42 315.25 566.67 315.51Q566.92 315.77 567.33 315.77L567.33 315.77L569.73 315.77L569.73 317ZM575.49 317.15L575.49 317.15Q574.06 317.15 573.21 316.30Q572.35 315.45 572.35 314L572.35 314L572.35 308.75L573.70 308.75L573.70 314Q573.70 314.90 574.18 315.43Q574.66 315.96 575.49 315.96L575.49 315.96Q576.33 315.96 576.81 315.43Q577.30 314.90 577.30 314L577.30 314L577.30 308.75L578.65 308.75L578.65 314Q578.65 315.45 577.78 316.30Q576.91 317.15 575.49 317.15ZM583.03 317L581.68 317L581.68 308.75L583.03 308.75L583.03 310.32L583.06 310.32Q583.16 309.53 583.74 309.06Q584.30 308.60 585.26 308.60L585.26 308.60Q586.55 308.60 587.25 309.37Q587.95 310.14 587.95 311.57L587.95 311.57L587.95 312.27L586.60 312.27L586.60 311.57Q586.60 309.77 584.85 309.77L584.85 309.77Q583.96 309.77 583.50 310.28Q583.03 310.79 583.03 311.75L583.03 311.75L583.03 317ZM592.78 317.15L592.78 317.15Q591.50 317.15 590.75 316.44Q590.00 315.73 590.00 314.57L590.00 314.57Q590.00 313.81 590.35 313.24Q590.70 312.67 591.31 312.34Q591.92 312.02 592.72 312.02L592.72 312.02L595.27 312.02L595.27 311.38Q595.27 309.77 593.51 309.77L593.51 309.77Q592.74 309.77 592.25 310.06Q591.77 310.34 591.75 310.85L591.75 310.85L590.39 310.85Q590.47 309.88 591.30 309.24Q592.13 308.60 593.51 308.60L593.51 308.60Q595.01 308.60 595.82 309.32Q596.62 310.04 596.62 311.33L596.62 311.33L596.62 317L595.28 317L595.28 315.50L595.25 315.50Q595.13 316.26 594.49 316.71Q593.85 317.15 592.78 317.15ZM593.11 316.01L593.11 316.01Q594.10 316.01 594.68 315.53Q595.27 315.05 595.27 314.23L595.27 314.23L595.27 313.07L592.87 313.07Q592.21 313.07 591.80 313.47Q591.38 313.87 591.38 314.52L591.38 314.52Q591.38 315.21 591.84 315.61Q592.30 316.01 593.11 316.01ZM609.73 319.70L608.38 319.70L608.38 308.75L609.73 308.75L609.73 310.32L609.75 310.32Q609.85 309.51 610.45 309.06Q611.05 308.60 611.98 308.60L611.98 308.60Q613.23 308.60 613.96 309.42Q614.70 310.24 614.70 311.66L614.70 311.66L614.70 314.07Q614.70 315.50 613.96 316.32Q613.23 317.15 611.98 317.15L611.98 317.15Q611.05 317.15 610.45 316.69Q609.85 316.22 609.75 315.43L609.75 315.43L609.70 315.43L609.73 317.30L609.73 319.70ZM611.53 315.98L611.53 315.98Q612.38 315.98 612.87 315.53Q613.35 315.08 613.35 314.07L613.35 314.07L613.35 311.68Q613.35 310.65 612.87 310.21Q612.38 309.77 611.53 309.77L611.53 309.77Q610.71 309.77 610.22 310.30Q609.73 310.82 609.73 311.75L609.73 311.75L609.73 314Q609.73 314.93 610.22 315.45Q610.71 315.98 611.53 315.98ZM620.50 317.12L620.50 317.12Q619.01 317.12 618.14 316.25Q617.26 315.38 617.26 313.82L617.26 313.82L617.26 311.93Q617.26 310.36 618.13 309.49Q619 308.63 620.50 308.63L620.50 308.63Q622 308.63 622.87 309.49Q623.74 310.36 623.74 311.93L623.74 311.93L623.74 313.82Q623.74 315.38 622.86 316.25Q621.99 317.12 620.50 317.12ZM620.50 315.92L620.50 315.92Q621.38 315.92 621.89 315.43Q622.39 314.93 622.39 313.97L622.39 313.97L622.39 311.78Q622.39 310.82 621.89 310.32Q621.38 309.83 620.50 309.83L620.50 309.83Q619.63 309.83 619.12 310.32Q618.61 310.82 618.61 311.78L618.61 311.78L618.61 313.97Q618.61 314.93 619.12 315.43Q619.63 315.92 620.50 315.92ZM628.03 317L626.68 317L626.68 308.75L628.03 308.75L628.03 310.32L628.06 310.32Q628.16 309.53 628.74 309.06Q629.30 308.60 630.26 308.60L630.26 308.60Q631.55 308.60 632.25 309.37Q632.95 310.14 632.95 311.57L632.95 311.57L632.95 312.27L631.60 312.27L631.60 311.57Q631.60 309.77 629.85 309.77L629.85 309.77Q628.96 309.77 628.50 310.28Q628.03 310.79 628.03 311.75L628.03 311.75L628.03 317ZM645.73 319.70L644.38 319.70L644.38 308.75L645.73 308.75L645.73 310.32L645.75 310.32Q645.85 309.51 646.45 309.06Q647.05 308.60 647.98 308.60L647.98 308.60Q649.23 308.60 649.96 309.42Q650.70 310.24 650.70 311.66L650.70 311.66L650.70 314.07Q650.70 315.50 649.96 316.32Q649.23 317.15 647.98 317.15L647.98 317.15Q647.05 317.15 646.45 316.69Q645.85 316.22 645.75 315.43L645.75 315.43L645.70 315.43L645.73 317.30L645.73 319.70ZM647.53 315.98L647.53 315.98Q648.38 315.98 648.87 315.53Q649.35 315.08 649.35 314.07L649.35 314.07L649.35 311.68Q649.35 310.65 648.87 310.21Q648.38 309.77 647.53 309.77L647.53 309.77Q646.71 309.77 646.22 310.30Q645.73 310.82 645.73 311.75L645.73 311.75L645.73 314Q645.73 314.93 646.22 315.45Q646.71 315.98 647.53 315.98ZM655.78 317.15L655.78 317.15Q654.50 317.15 653.75 316.44Q653.00 315.73 653.00 314.57L653.00 314.57Q653.00 313.81 653.35 313.24Q653.70 312.67 654.31 312.34Q654.92 312.02 655.72 312.02L655.72 312.02L658.27 312.02L658.27 311.38Q658.27 309.77 656.51 309.77L656.51 309.77Q655.74 309.77 655.25 310.06Q654.77 310.34 654.75 310.85L654.75 310.85L653.39 310.85Q653.47 309.88 654.30 309.24Q655.13 308.60 656.51 308.60L656.51 308.60Q658.01 308.60 658.82 309.32Q659.62 310.04 659.62 311.33L659.62 311.33L659.62 317L658.28 317L658.28 315.50L658.25 315.50Q658.13 316.26 657.49 316.71Q656.85 317.15 655.78 317.15ZM656.11 316.01L656.11 316.01Q657.10 316.01 657.68 315.53Q658.27 315.05 658.27 314.23L658.27 314.23L658.27 313.07L655.87 313.07Q655.21 313.07 654.80 313.47Q654.38 313.87 654.38 314.52L654.38 314.52Q654.38 315.21 654.84 315.61Q655.30 316.01 656.11 316.01ZM665.02 317.15L665.02 317.15Q663.79 317.15 663.05 316.32Q662.30 315.50 662.30 314.09L662.30 314.09L662.30 311.68Q662.30 310.25 663.04 309.43Q663.77 308.60 665.02 308.60L665.02 308.60Q665.95 308.60 666.56 309.06Q667.16 309.53 667.28 310.32L667.28 310.32L667.30 310.32L667.27 308.45L667.27 306.05L668.62 306.05L668.62 317L667.27 317L667.27 315.43L667.25 315.43Q667.15 316.24 666.55 316.69Q665.95 317.15 665.02 317.15ZM665.47 315.98L665.47 315.98Q666.31 315.98 666.79 315.45Q667.27 314.93 667.27 314L667.27 314L667.27 311.75Q667.27 310.82 666.79 310.30Q666.31 309.77 665.47 309.77L665.47 309.77Q664.62 309.77 664.13 310.21Q663.65 310.65 663.65 311.68L663.65 311.68L663.65 314.07Q663.65 315.08 664.13 315.53Q664.62 315.98 665.47 315.98ZM673.03 317L671.68 317L671.68 308.75L673.03 308.75L673.03 310.32L673.06 310.32Q673.16 309.53 673.74 309.06Q674.30 308.60 675.26 308.60L675.26 308.60Q676.55 308.60 677.25 309.37Q677.95 310.14 677.95 311.57L677.95 311.57L677.95 312.27L676.60 312.27L676.60 311.57Q676.60 309.77 674.85 309.77L674.85 309.77Q673.96 309.77 673.50 310.28Q673.03 310.79 673.03 311.75L673.03 311.75L673.03 317ZM682.78 317.15L682.78 317.15Q681.50 317.15 680.75 316.44Q680.00 315.73 680.00 314.57L680.00 314.57Q680.00 313.81 680.35 313.24Q680.70 312.67 681.31 312.34Q681.92 312.02 682.72 312.02L682.72 312.02L685.27 312.02L685.27 311.38Q685.27 309.77 683.51 309.77L683.51 309.77Q682.74 309.77 682.25 310.06Q681.77 310.34 681.75 310.85L681.75 310.85L680.39 310.85Q680.47 309.88 681.30 309.24Q682.13 308.60 683.51 308.60L683.51 308.60Q685.01 308.60 685.82 309.32Q686.62 310.04 686.62 311.33L686.62 311.33L686.62 317L685.28 317L685.28 315.50L685.25 315.50Q685.13 316.26 684.49 316.71Q683.85 317.15 682.78 317.15ZM683.11 316.01L683.11 316.01Q684.10 316.01 684.68 315.53Q685.27 315.05 685.27 314.23L685.27 314.23L685.27 313.07L682.87 313.07Q682.21 313.07 681.80 313.47Q681.38 313.87 681.38 314.52L681.38 314.52Q681.38 315.21 681.84 315.61Q682.30 316.01 683.11 316.01ZM684.63 307.25L684.63 307.25Q684.17 307.25 683.89 307.09Q683.61 306.94 683.41 306.73Q683.22 306.51 683.03 306.36Q682.86 306.20 682.60 306.20L682.60 306.20Q682.15 306.20 682.15 306.73L682.15 306.73L682.15 307.18L681.17 307.18L681.17 306.73Q681.17 306.05 681.55 305.68Q681.92 305.30 682.52 305.30L682.52 305.30Q682.98 305.30 683.26 305.46Q683.54 305.62 683.74 305.82Q683.93 306.04 684.12 306.19Q684.29 306.35 684.55 306.35L684.55 306.35Q685 306.35 685 305.82L685 305.82L685 305.38L685.98 305.38L685.98 305.82Q685.98 306.50 685.61 306.88Q685.24 307.25 684.63 307.25ZM692.50 317.12L692.50 317.12Q691.01 317.12 690.14 316.25Q689.26 315.38 689.26 313.82L689.26 313.82L689.26 311.93Q689.26 310.36 690.13 309.49Q691 308.63 692.50 308.63L692.50 308.63Q694 308.63 694.87 309.49Q695.74 310.36 695.74 311.93L695.74 311.93L695.74 313.82Q695.74 315.38 694.86 316.25Q693.99 317.12 692.50 317.12ZM692.50 315.92L692.50 315.92Q693.38 315.92 693.89 315.43Q694.39 314.93 694.39 313.97L694.39 313.97L694.39 311.78Q694.39 310.82 693.89 310.32Q693.38 309.83 692.50 309.83L692.50 309.83Q691.63 309.83 691.12 310.32Q690.61 310.82 690.61 311.78L690.61 311.78L690.61 313.97Q690.61 314.93 691.12 315.43Q691.63 315.92 692.50 315.92Z" fill="#C9D1D9"></path></g>
    </g>
  </g>
</svg>